<svg aria-hidden="true" xmlns="http://www.w3.org/2000/svg" xmlns:xlink="http://www.w3.org/1999/xlink"><symbol viewBox="0 0 48 48"     id="svg-Apple-Negative"><g clip-path="url(#aaclip0_17_88)"><path d="M43.5839 37.4071C42.858 39.0841 41.9988 40.6278 41.0033 42.047C39.6463 43.9817 38.5352 45.321 37.6789 46.0647C36.3516 47.2854 34.9294 47.9105 33.4065 47.9461C32.3132 47.9461 30.9947 47.635 29.4599 47.0039C27.9201 46.3758 26.5051 46.0647 25.2112 46.0647C23.8542 46.0647 22.3988 46.3758 20.8421 47.0039C19.2831 47.635 18.0271 47.9639 17.0668 47.9964C15.6064 48.0587 14.1508 47.4157 12.6978 46.0647C11.7704 45.2558 10.6105 43.8692 9.22087 41.9048C7.72995 39.8071 6.50422 37.3745 5.54395 34.6013C4.51554 31.6058 4 28.7052 4 25.897C4 22.6802 4.69509 19.9057 6.08734 17.5808C7.18153 15.7133 8.63718 14.2401 10.4591 13.1587C12.2809 12.0772 14.2495 11.5261 16.3694 11.4909C17.5293 11.4909 19.0505 11.8497 20.9408 12.5548C22.8258 13.2624 24.0361 13.6212 24.5667 13.6212C24.9635 13.6212 26.308 13.2016 28.5874 12.3652C30.7428 11.5895 32.562 11.2684 34.0524 11.3949C38.0908 11.7208 41.1247 13.3127 43.1425 16.1808C39.5307 18.3692 37.7441 21.4343 37.7797 25.3663C37.8123 28.429 38.9233 30.9777 41.107 33.0013C42.0966 33.9406 43.2017 34.6665 44.4313 35.182C44.1646 35.9553 43.8832 36.696 43.5839 37.4071ZM34.322 0.960823C34.322 3.36137 33.445 5.60276 31.6969 7.67736C29.5873 10.1437 27.0357 11.5688 24.2687 11.3439C24.2334 11.0559 24.213 10.7528 24.213 10.4343C24.213 8.12979 25.2162 5.6635 26.9978 3.64696C27.8872 2.62596 29.0185 1.77701 30.3903 1.09978C31.7591 0.43266 33.0539 0.0637274 34.2716 0.000549316C34.3072 0.321465 34.322 0.642401 34.322 0.960792V0.960823Z"   /></g><defs><clipPath id="aaclip0_17_88"><path    d="M0 0H48V48H0z"/></clipPath></defs></symbol><symbol viewBox="0 0 48 48"     id="svg-Apple-Original"><g clip-path="url(#abclip0_17_53)"><path d="M43.5839 37.4071C42.858 39.0841 41.9988 40.6277 41.0033 42.047C39.6463 43.9817 38.5352 45.3209 37.6789 46.0646C36.3516 47.2853 34.9294 47.9105 33.4065 47.946C32.3132 47.946 30.9947 47.6349 29.4599 47.0039C27.9201 46.3757 26.5051 46.0646 25.2112 46.0646C23.8542 46.0646 22.3988 46.3757 20.8421 47.0039C19.2831 47.6349 18.0271 47.9638 17.0668 47.9964C15.6064 48.0586 14.1508 47.4157 12.6978 46.0646C11.7704 45.2558 10.6105 43.8691 9.22087 41.9047C7.72995 39.807 6.50422 37.3745 5.54395 34.6013C4.51554 31.6058 4 28.7051 4 25.8969C4 22.6801 4.69509 19.9057 6.08734 17.5807C7.18153 15.7132 8.63718 14.2401 10.4591 13.1586C12.2809 12.0772 14.2495 11.5261 16.3694 11.4908C17.5293 11.4908 19.0505 11.8497 20.9408 12.5548C22.8258 13.2623 24.0361 13.6212 24.5667 13.6212C24.9635 13.6212 26.308 13.2016 28.5874 12.3652C30.7428 11.5895 32.562 11.2683 34.0524 11.3948C38.0908 11.7208 41.1247 13.3127 43.1425 16.1808C39.5307 18.3692 37.7441 21.4342 37.7797 25.3663C37.8123 28.429 38.9233 30.9777 41.107 33.0013C42.0966 33.9405 43.2017 34.6664 44.4313 35.182C44.1646 35.9553 43.8832 36.696 43.5839 37.4071ZM34.322 0.960792C34.322 3.36134 33.445 5.60273 31.6969 7.67733C29.5873 10.1436 27.0357 11.5688 24.2687 11.3439C24.2334 11.0559 24.213 10.7528 24.213 10.4343C24.213 8.12976 25.2162 5.66346 26.9978 3.64693C27.8872 2.62593 29.0185 1.77697 30.3903 1.09975C31.7591 0.432629 33.0539 0.0636968 34.2716 0.000518799C34.3072 0.321435 34.322 0.642371 34.322 0.960761V0.960792Z"   /></g><defs><clipPath id="abclip0_17_53"><path    d="M0 0H48V48H0z"/></clipPath></defs></symbol><symbol viewBox="0 0 48 48"     id="svg-Clubhouse-Negative"><path d="M3.48333 35.75C1.56667 35.75 0 37.3167 0 39.2333 0 41.15 1.56667 42.7167 3.48333 42.7167 5.4 42.7167 6.96667 41.15 6.96667 39.2333 6.96667 37.3167 5.41667 35.75 3.48333 35.75zM46.3667 5.33331L24.4333 12.3333V5.41665L.783325 12.9666V33.0166L21.1833 26.5V33.3833L48 24.8333 40.7333 17.7333 46.3667 5.33331zM21.1833 23.0666L4.04999 28.5333V15.35L21.1833 9.88331V23.0666zM41.9333 23.35L24.4333 28.9333V15.7666L40.55 10.6166 36.85 18.4166 41.9333 23.35z"   /></symbol><symbol viewBox="0 0 48 48"     id="svg-Clubhouse-Original"><path d="M3.48333 35.75C1.56667 35.75 0 37.3167 0 39.2333 0 41.15 1.56667 42.7167 3.48333 42.7167 5.4 42.7167 6.96667 41.15 6.96667 39.2333 6.96667 37.3167 5.41667 35.75 3.48333 35.75zM46.3667 5.33331L24.4333 12.3333V5.41665L.783325 12.9666V33.0166L21.1833 26.5V33.3833L48 24.8333 40.7333 17.7333 46.3667 5.33331zM21.1833 23.0666L4.04999 28.5333V15.35L21.1833 9.88331V23.0666zM41.9333 23.35L24.4333 28.9333V15.7666L40.55 10.6166 36.85 18.4166 41.9333 23.35z" /></symbol><symbol viewBox="0 0 48 48"     id="svg-Discord-Negative"><path d="M40.634 8.31127C37.5747 6.90751 34.294 5.87327 30.8638 5.28093C30.8013 5.2695 30.7389 5.29806 30.7067 5.3552C30.2848 6.10563 29.8175 7.08463 29.4902 7.85412C25.8008 7.30178 22.1304 7.30178 18.5166 7.85412C18.1893 7.06753 17.705 6.10563 17.2811 5.3552C17.249 5.29997 17.1866 5.2714 17.1241 5.28093C13.6958 5.87138 10.4151 6.90561 7.35387 8.31127C7.32737 8.32269 7.30465 8.34176 7.28958 8.3665C1.06678 17.6632 -0.6379 26.7314 0.19836 35.6872C0.202144 35.731 0.22674 35.7729 0.260796 35.7996C4.36642 38.8147 8.34341 40.6451 12.2466 41.8583C12.309 41.8774 12.3752 41.8546 12.415 41.8031C13.3383 40.5423 14.1613 39.2128 14.867 37.8147C14.9086 37.7328 14.8688 37.6357 14.7837 37.6033C13.4783 37.1081 12.2352 36.5043 11.0395 35.8187C10.9449 35.7634 10.9373 35.6281 11.0243 35.5634C11.2759 35.3748 11.5276 35.1786 11.7679 34.9805C11.8114 34.9444 11.872 34.9367 11.9231 34.9596C19.7786 38.5461 28.2831 38.5461 36.0459 34.9596C36.097 34.9348 36.1576 34.9425 36.203 34.9787C36.4433 35.1767 36.6949 35.3748 36.9484 35.5634C37.0354 35.6281 37.0298 35.7634 36.9352 35.8187C35.7394 36.5176 34.4964 37.1081 33.189 37.6014C33.1039 37.6338 33.0661 37.7328 33.1077 37.8147C33.8285 39.2108 34.6515 40.5403 35.5578 41.8012C35.5956 41.8546 35.6637 41.8774 35.7262 41.8583C39.6483 40.6451 43.6252 38.8147 47.7309 35.7996C47.7668 35.7729 47.7895 35.7329 47.7933 35.6891C48.7942 25.3352 46.117 16.3414 40.6964 8.3684C40.6832 8.34176 40.6605 8.32269 40.634 8.31127ZM16.04 30.2341C13.675 30.2341 11.7263 28.0628 11.7263 25.3962C11.7263 22.7297 13.6372 20.5584 16.04 20.5584C18.4617 20.5584 20.3916 22.7487 20.3538 25.3962C20.3538 28.0628 18.4428 30.2341 16.04 30.2341ZM31.9895 30.2341C29.6245 30.2341 27.6758 28.0628 27.6758 25.3962C27.6758 22.7297 29.5867 20.5584 31.9895 20.5584C34.4113 20.5584 36.3411 22.7487 36.3033 25.3962C36.3033 28.0628 34.4113 30.2341 31.9895 30.2341Z"   /></symbol><symbol viewBox="0 0 48 48"     id="svg-Discord-Original"><path d="M40.634 8.31121C37.5747 6.90744 34.294 5.87321 30.8638 5.28087C30.8013 5.26943 30.7389 5.298 30.7067 5.35514C30.2848 6.10557 29.8175 7.08457 29.4902 7.85406C25.8008 7.30172 22.1304 7.30172 18.5166 7.85406C18.1893 7.06747 17.705 6.10557 17.2811 5.35514C17.249 5.29991 17.1866 5.27134 17.1241 5.28087C13.6958 5.87132 10.4151 6.90555 7.35387 8.31121C7.32737 8.32263 7.30465 8.3417 7.28958 8.36644C1.06678 17.6632 -0.6379 26.7314 0.19836 35.6872C0.202144 35.731 0.22674 35.7729 0.260796 35.7995C4.36642 38.8146 8.34341 40.645 12.2466 41.8583C12.309 41.8773 12.3752 41.8545 12.415 41.803C13.3383 40.5422 14.1613 39.2127 14.867 37.8146C14.9086 37.7328 14.8688 37.6356 14.7837 37.6032C13.4783 37.108 12.2352 36.5042 11.0395 35.8186C10.9449 35.7634 10.9373 35.6281 11.0243 35.5633C11.2759 35.3748 11.5276 35.1786 11.7679 34.9805C11.8114 34.9443 11.872 34.9367 11.9231 34.9595C19.7786 38.5461 28.2831 38.5461 36.0459 34.9595C36.097 34.9348 36.1576 34.9424 36.203 34.9786C36.4433 35.1767 36.6949 35.3748 36.9484 35.5633C37.0354 35.6281 37.0298 35.7634 36.9352 35.8186C35.7394 36.5176 34.4964 37.108 33.189 37.6014C33.1039 37.6337 33.0661 37.7328 33.1077 37.8146C33.8285 39.2108 34.6515 40.5402 35.5578 41.8012C35.5956 41.8545 35.6637 41.8773 35.7262 41.8583C39.6483 40.645 43.6252 38.8146 47.7309 35.7995C47.7668 35.7729 47.7895 35.7329 47.7933 35.6891C48.7942 25.3352 46.117 16.3413 40.6964 8.36833C40.6832 8.3417 40.6605 8.32263 40.634 8.31121ZM16.04 30.234C13.675 30.234 11.7263 28.0627 11.7263 25.3962C11.7263 22.7296 13.6372 20.5583 16.04 20.5583C18.4617 20.5583 20.3916 22.7487 20.3538 25.3962C20.3538 28.0627 18.4428 30.234 16.04 30.234ZM31.9895 30.234C29.6245 30.234 27.6758 28.0627 27.6758 25.3962C27.6758 22.7296 29.5867 20.5583 31.9895 20.5583C34.4113 20.5583 36.3411 22.7487 36.3033 25.3962C36.3033 28.0627 34.4113 30.234 31.9895 30.234Z" /></symbol><symbol viewBox="0 0 48 48"     id="svg-Dribbble-Negative"><path fill-rule="evenodd" clip-rule="evenodd" d="M24 0C10.7505 0 0 10.7505 0 24C0 37.2495 10.7505 48 24 48C37.2234 48 48 37.2495 48 24C48 10.7505 37.2234 0 24 0ZM39.8525 11.0629C42.7158 14.551 44.4339 19.0021 44.486 23.8177C43.8092 23.6877 37.0411 22.308 30.2212 23.167C30.0651 22.8286 29.9349 22.4641 29.7788 22.0998C29.3622 21.1107 28.8937 20.0955 28.4251 19.1324C35.9739 16.0608 39.41 11.6356 39.8525 11.0629ZM24 3.54013C29.2061 3.54013 33.9696 5.49242 37.5879 8.69415C37.2234 9.21476 34.1258 13.3536 26.8372 16.0868C23.4794 9.91756 19.7571 4.86768 19.1844 4.08676C20.7201 3.72234 22.3341 3.54013 24 3.54013ZM15.2799 5.46637C15.8265 6.19522 19.4708 11.2712 22.8807 17.3102C13.3015 19.8612 4.84165 19.8092 3.93058 19.8092C5.25813 13.4577 9.55314 8.17353 15.2799 5.46637ZM3.48807 24.0261C3.48807 23.8178 3.48807 23.6096 3.48807 23.4014C4.3731 23.4273 14.3167 23.5575 24.5466 20.486C25.1454 21.6312 25.692 22.8026 26.2127 23.9739C25.9522 24.052 25.6659 24.1302 25.4056 24.2082C14.8373 27.6181 9.21476 36.937 8.7462 37.7179C5.4924 34.0998 3.48807 29.2842 3.48807 24.0261ZM24 44.5119C19.2624 44.5119 14.8894 42.898 11.4273 40.1908C11.7918 39.4361 15.9565 31.4187 27.514 27.384C27.5661 27.3579 27.5922 27.3579 27.6443 27.332C30.5336 34.8026 31.705 41.0759 32.0173 42.872C29.5445 43.9392 26.8372 44.5119 24 44.5119ZM35.4273 40.9978C35.2191 39.7483 34.1258 33.7614 31.4447 26.3948C37.8743 25.3796 43.4967 27.0456 44.1996 27.2799C43.3146 32.9805 40.0347 37.9002 35.4273 40.9978Z"   /></symbol><symbol viewBox="0 0 48 48"     id="svg-Dribbble-Original"><path d="M24 47.25C36.8406 47.25 47.25 36.8406 47.25 24C47.25 11.1594 36.8406 0.75 24 0.75C11.1594 0.75 0.75 11.1594 0.75 24C0.75 36.8406 11.1594 47.25 24 47.25Z"/><path fill-rule="evenodd" clip-rule="evenodd" d="M24 0C10.7505 0 0 10.7505 0 24C0 37.2495 10.7505 48 24 48C37.2234 48 48 37.2495 48 24C48 10.7505 37.2234 0 24 0ZM39.8525 11.0629C42.7158 14.551 44.4339 19.0021 44.486 23.8177C43.8092 23.6877 37.0411 22.308 30.2212 23.167C30.0651 22.8286 29.9349 22.4641 29.7788 22.0998C29.3622 21.1107 28.8937 20.0955 28.4251 19.1324C35.9739 16.0608 39.41 11.6356 39.8525 11.0629ZM24 3.54013C29.2061 3.54013 33.9696 5.49242 37.5879 8.69415C37.2234 9.21476 34.1258 13.3536 26.8372 16.0868C23.4794 9.91756 19.7571 4.86768 19.1844 4.08676C20.7201 3.72234 22.3341 3.54013 24 3.54013ZM15.2799 5.46637C15.8265 6.19522 19.4708 11.2712 22.8807 17.3102C13.3015 19.8612 4.84165 19.8092 3.93058 19.8092C5.25813 13.4577 9.55314 8.17353 15.2799 5.46637ZM3.48807 24.0261C3.48807 23.8178 3.48807 23.6096 3.48807 23.4014C4.3731 23.4273 14.3167 23.5575 24.5466 20.486C25.1454 21.6312 25.692 22.8026 26.2127 23.9739C25.9522 24.052 25.6659 24.1302 25.4056 24.2082C14.8373 27.6181 9.21476 36.937 8.7462 37.7179C5.4924 34.0998 3.48807 29.2842 3.48807 24.0261ZM24 44.5119C19.2624 44.5119 14.8894 42.898 11.4273 40.1908C11.7918 39.4361 15.9565 31.4187 27.514 27.384C27.5661 27.3579 27.5922 27.3579 27.6443 27.332C30.5336 34.8026 31.705 41.0759 32.0173 42.872C29.5445 43.9392 26.8372 44.5119 24 44.5119ZM35.4273 40.9978C35.2191 39.7483 34.1258 33.7614 31.4447 26.3948C37.8743 25.3796 43.4967 27.0456 44.1996 27.2799C43.3146 32.9805 40.0347 37.9002 35.4273 40.9978Z" /></symbol><symbol viewBox="0 0 48 48"     id="svg-Facebook-Negative"><path d="M48 24C48 10.7452 37.2548 0 24 0C10.7452 0 0 10.7452 0 24C0 35.9789 8.77641 45.908 20.25 47.7084V30.9375H14.1562V24H20.25V18.7125C20.25 12.6975 23.8331 9.375 29.3152 9.375C31.9402 9.375 34.6875 9.84375 34.6875 9.84375V15.75H31.6613C28.68 15.75 27.75 17.6002 27.75 19.5V24H34.4062L33.3422 30.9375H27.75V47.7084C39.2236 45.908 48 35.9789 48 24Z"   /></symbol><symbol viewBox="0 0 48 48"     id="svg-Facebook-Original"><path d="M48 24C48 10.7452 37.2548 0 24 0C10.7452 0 0 10.7452 0 24C0 35.9789 8.77641 45.908 20.25 47.7084V30.9375H14.1562V24H20.25V18.7125C20.25 12.6975 23.8331 9.375 29.3152 9.375C31.9402 9.375 34.6875 9.84375 34.6875 9.84375V15.75H31.6613C28.68 15.75 27.75 17.6002 27.75 19.5V24H34.4062L33.3422 30.9375H27.75V47.7084C39.2236 45.908 48 35.9789 48 24Z" /><path d="M33.3422 30.9375L34.4062 24H27.75V19.5C27.75 17.602 28.68 15.75 31.6613 15.75H34.6875V9.84375C34.6875 9.84375 31.9411 9.375 29.3152 9.375C23.8331 9.375 20.25 12.6975 20.25 18.7125V24H14.1562V30.9375H20.25V47.7084C22.7349 48.0972 25.2651 48.0972 27.75 47.7084V30.9375H33.3422Z"   /></symbol><symbol viewBox="0 0 48 48"     id="svg-Figma-Negative"><path fill-rule="evenodd" clip-rule="evenodd" d="M16.3201 0H31.6799C36.4495 0 40.32 3.8705 40.32 8.64006C40.32 11.9825 38.4192 14.8832 35.6403 16.3199C38.4192 17.7567 40.32 20.6576 40.32 23.9999C40.32 28.7695 36.4495 32.64 31.6799 32.64C28.9668 32.64 26.5446 31.3876 24.9602 29.4298V39.3599C24.9602 44.1295 21.0897 48 16.3201 48C11.5505 48 7.67999 44.1295 7.67999 39.3599C7.67999 36.0175 9.58077 33.1167 12.3597 31.6799C9.58077 30.2432 7.67999 27.3423 7.67999 23.9999C7.67999 20.6576 9.58075 17.7567 12.3597 16.3199C9.58076 14.8832 7.67999 11.9825 7.67999 8.64006C7.67999 3.8705 11.5505 0 16.3201 0ZM9.59999 8.64006C9.59999 4.9309 12.6109 1.92 16.3201 1.92H23.0398V15.3599H16.3201L16.2993 15.3599C12.5996 15.3487 9.59999 12.3422 9.59999 8.64006ZM23.0402 23.9086C23.0399 23.939 23.0398 23.9694 23.0398 23.9999C23.0398 24.0304 23.0399 24.0609 23.0402 24.0913V30.7198H16.3201C12.6109 30.72 9.59999 27.7091 9.59999 23.9999C9.59999 20.2977 12.5997 17.2911 16.2995 17.2799L16.3201 17.2799H23.0398L23.0402 23.9086ZM24.9602 24.0804V23.9195C25.0033 20.2565 27.9826 17.2947 31.6523 17.2799H31.6799C31.6868 17.2799 31.6936 17.2799 31.7005 17.2799C35.4003 17.2911 38.4 20.2977 38.4 23.9999C38.4 27.7091 35.3891 30.72 31.6799 30.72C27.9975 30.72 25.0034 27.7526 24.9602 24.0804ZM26.2505 17.2799C25.7765 17.6635 25.3438 18.0961 24.9602 18.5701V17.2799H26.2505ZM31.7007 15.3599C31.6938 15.3599 31.6868 15.3599 31.6799 15.3599C31.6694 15.3599 31.6589 15.3599 31.6484 15.3599H24.9602V1.92H31.6799C35.3891 1.92 38.4 4.9309 38.4 8.64006C38.4 12.3422 35.4004 15.3487 31.7007 15.3599ZM16.3201 32.6399C12.6109 32.6399 9.59999 35.6508 9.59999 39.3599C9.59999 43.0691 12.6109 46.08 16.3201 46.08C20.0293 46.08 23.0402 43.0691 23.0402 39.3599V32.6399H16.3201Z"   /></symbol><symbol viewBox="0 0 48 48"     id="svg-Figma_-_Original"><g clip-path="url(#alclip0_17_203)"><path d="M16.0001 48C20.4162 48 24.0002 44.4159 24.0002 39.9999V31.9999H16.0001C11.5841 31.9999 8 35.5839 8 39.9999C8 44.4159 11.5841 48 16.0001 48Z" /><path d="M8 23.9999C8 19.5839 11.5841 15.9999 16.0001 15.9999H24.0002V31.9998H16.0001C11.5841 32 8 28.4159 8 23.9999Z" /><path d="M8 8.00006C8 3.58406 11.5841 0 16.0001 0H24.0002V15.9999H16.0001C11.5841 15.9999 8 12.4161 8 8.00006Z"/><path d="M23.9998 0H31.9999C36.4159 0 40 3.58406 40 8.00006C40 12.4161 36.4159 15.9999 31.9999 15.9999H23.9998V0Z" /><path d="M40 23.9999C40 28.4159 36.4159 32 31.9999 32C27.5838 32 23.9998 28.4159 23.9998 23.9999C23.9998 19.5839 27.5838 15.9999 31.9999 15.9999C36.4159 15.9999 40 19.5839 40 23.9999Z" /></g><defs><clipPath id="alclip0_17_203"><path    d="M0 0H48V48H0z"/></clipPath></defs></symbol><symbol viewBox="0 0 48 48"     id="svg-Github-Negative"><g clip-path="url(#amclip0_910_44)"   ><path fill-rule="evenodd" clip-rule="evenodd" d="M24.0005 1C18.303 1.00296 12.7923 3.02092 8.45374 6.69305C4.11521 10.3652 1.23181 15.452 0.319089 21.044C-0.593628 26.636 0.523853 32.3684 3.47174 37.2164C6.41963 42.0643 11.0057 45.7115 16.4099 47.5059C17.6021 47.7272 18.0512 46.9883 18.0512 46.36C18.0512 45.7317 18.0273 43.91 18.0194 41.9184C11.3428 43.3608 9.93197 39.101 9.93197 39.101C8.84305 36.3349 7.26927 35.6078 7.26927 35.6078C5.09143 34.1299 7.43223 34.1576 7.43223 34.1576C9.84455 34.3275 11.1123 36.6194 11.1123 36.6194C13.2504 40.2667 16.7278 39.2116 18.0949 38.5952C18.3095 37.0501 18.9335 35.999 19.621 35.4023C14.2877 34.8017 8.68408 32.7548 8.68408 23.6108C8.65102 21.2394 9.53605 18.9461 11.156 17.2054C10.9096 16.6047 10.087 14.1785 11.3905 10.8829C11.3905 10.8829 13.4054 10.2427 17.9916 13.3289C21.9253 12.2592 26.0757 12.2592 30.0095 13.3289C34.5917 10.2427 36.6026 10.8829 36.6026 10.8829C37.9101 14.1706 37.0875 16.5968 36.8411 17.2054C38.4662 18.9464 39.353 21.2437 39.317 23.6187C39.317 32.7824 33.7015 34.8017 28.3602 35.3905C29.2186 36.1333 29.9856 37.5836 29.9856 39.8122C29.9856 43.0051 29.9578 45.5736 29.9578 46.36C29.9578 46.9962 30.391 47.7391 31.6071 47.5059C37.0119 45.7113 41.5984 42.0634 44.5462 37.2147C47.4941 32.3659 48.611 26.6326 47.6972 21.0401C46.7835 15.4476 43.8986 10.3607 39.5587 6.68921C35.2187 3.01771 29.7067 1.00108 24.0085 1H24.0005Z"/><path d="M9.08887 35.264C9.03721 35.3826 8.84645 35.4181 8.69146 35.3351 8.53646 35.2522 8.42122 35.098 8.47686 34.9755 8.5325 34.853 8.71928 34.8214 8.87428 34.9044 9.02927 34.9874 9.14848 35.1455 9.08887 35.264zM10.0626 36.3428C9.98028 36.384 9.88612 36.3955 9.79622 36.3753 9.70632 36.3551 9.62629 36.3045 9.56979 36.2321 9.41479 36.0662 9.38298 35.837 9.50221 35.7342 9.62143 35.6315 9.83606 35.6789 9.99105 35.8449 10.146 36.0108 10.1818 36.24 10.0626 36.3428zM11.0085 37.7139C10.8614 37.8167 10.6111 37.7139 10.472 37.5085 10.4335 37.4716 10.4029 37.4274 10.382 37.3785 10.3611 37.3296 10.3503 37.2771 10.3503 37.2239 10.3503 37.1708 10.3611 37.1183 10.382 37.0694 10.4029 37.0205 10.4335 36.9763 10.472 36.9394 10.619 36.8406 10.8694 36.9394 11.0085 37.141 11.1476 37.3425 11.1516 37.6112 11.0085 37.7139zM12.2921 39.0417C12.161 39.1879 11.8947 39.1484 11.6761 38.9508 11.4575 38.7532 11.4059 38.4845 11.537 38.3423 11.6682 38.2 11.9344 38.2395 12.161 38.4331 12.3875 38.6268 12.4312 38.8994 12.2921 39.0417zM14.0923 39.8162C14.0327 40.0019 13.7625 40.0849 13.4922 40.0058 13.222 39.9268 13.0432 39.7055 13.0948 39.5158 13.1465 39.3262 13.4207 39.2392 13.6949 39.3262 13.9691 39.4131 14.144 39.6225 14.0923 39.8162zM16.0557 39.9505C16.0557 40.1442 15.8331 40.3101 15.547 40.3141 15.2608 40.318 15.0264 40.16 15.0264 39.9663 15.0264 39.7727 15.2489 39.6067 15.535 39.6028 15.8212 39.5988 16.0557 39.753 16.0557 39.9505zM17.8838 39.6463C17.9196 39.8399 17.7208 40.0414 17.4347 40.0888 17.1486 40.1363 16.8982 40.0217 16.8624 39.832 16.8267 39.6423 17.0333 39.4368 17.3115 39.3855 17.5897 39.3341 17.848 39.4526 17.8838 39.6463z"/></g><defs><clipPath id="amclip0_910_44"><path    d="M0 0H48V48H0z"/></clipPath></defs></symbol><symbol viewBox="0 0 48 48"     id="svg-Github-Original"><g clip-path="url(#anclip0_910_21)"><path fill-rule="evenodd" clip-rule="evenodd" d="M24.0005 1C18.303 1.00296 12.7923 3.02092 8.45374 6.69305C4.11521 10.3652 1.23181 15.452 0.319089 21.044C-0.593628 26.636 0.523853 32.3684 3.47174 37.2164C6.41963 42.0643 11.0057 45.7115 16.4099 47.5059C17.6021 47.7272 18.0512 46.9883 18.0512 46.36C18.0512 45.7317 18.0273 43.91 18.0194 41.9184C11.3428 43.3608 9.93197 39.101 9.93197 39.101C8.84305 36.3349 7.26927 35.6078 7.26927 35.6078C5.09143 34.1299 7.43223 34.1576 7.43223 34.1576C9.84455 34.3275 11.1123 36.6194 11.1123 36.6194C13.2504 40.2667 16.7278 39.2116 18.0949 38.5952C18.3095 37.0501 18.9335 35.999 19.621 35.4023C14.2877 34.8017 8.68408 32.7548 8.68408 23.6108C8.65102 21.2394 9.53605 18.9461 11.156 17.2054C10.9096 16.6047 10.087 14.1785 11.3905 10.8829C11.3905 10.8829 13.4054 10.2427 17.9916 13.3289C21.9253 12.2592 26.0757 12.2592 30.0095 13.3289C34.5917 10.2427 36.6026 10.8829 36.6026 10.8829C37.9101 14.1706 37.0875 16.5968 36.8411 17.2054C38.4662 18.9464 39.353 21.2437 39.317 23.6187C39.317 32.7824 33.7015 34.8017 28.3602 35.3905C29.2186 36.1333 29.9856 37.5836 29.9856 39.8122C29.9856 43.0051 29.9578 45.5736 29.9578 46.36C29.9578 46.9962 30.391 47.7391 31.6071 47.5059C37.0119 45.7113 41.5984 42.0634 44.5462 37.2147C47.4941 32.3659 48.611 26.6326 47.6972 21.0401C46.7835 15.4476 43.8986 10.3607 39.5587 6.68921C35.2187 3.01771 29.7067 1.00108 24.0085 1H24.0005Z"/><path d="M9.08887 35.264C9.03721 35.3826 8.84645 35.4181 8.69146 35.3351 8.53646 35.2522 8.42122 35.098 8.47686 34.9755 8.5325 34.853 8.71928 34.8214 8.87428 34.9044 9.02927 34.9874 9.14848 35.1455 9.08887 35.264zM10.0626 36.3428C9.98028 36.384 9.88612 36.3955 9.79622 36.3753 9.70632 36.3551 9.62629 36.3045 9.56979 36.2321 9.41479 36.0662 9.38298 35.837 9.50221 35.7342 9.62143 35.6315 9.83606 35.6789 9.99105 35.8449 10.146 36.0108 10.1818 36.24 10.0626 36.3428zM11.0085 37.714C10.8614 37.8167 10.6111 37.714 10.472 37.5085 10.4335 37.4716 10.4029 37.4274 10.382 37.3785 10.3611 37.3297 10.3503 37.2771 10.3503 37.224 10.3503 37.1709 10.3611 37.1183 10.382 37.0694 10.4029 37.0205 10.4335 36.9763 10.472 36.9395 10.619 36.8407 10.8694 36.9395 11.0085 37.141 11.1476 37.3425 11.1516 37.6112 11.0085 37.714zM12.2921 39.0417C12.161 39.1879 11.8947 39.1484 11.6761 38.9508 11.4575 38.7532 11.4059 38.4845 11.537 38.3423 11.6682 38.2 11.9344 38.2395 12.161 38.4331 12.3875 38.6268 12.4312 38.8994 12.2921 39.0417zM14.0923 39.8162C14.0327 40.0019 13.7625 40.0849 13.4922 40.0059 13.222 39.9268 13.0432 39.7055 13.0948 39.5159 13.1465 39.3262 13.4207 39.2393 13.6949 39.3262 13.9691 39.4131 14.144 39.6226 14.0923 39.8162zM16.0557 39.9505C16.0557 40.1442 15.8331 40.3101 15.547 40.3141 15.2608 40.318 15.0264 40.16 15.0264 39.9663 15.0264 39.7727 15.2489 39.6067 15.535 39.6028 15.8212 39.5988 16.0557 39.753 16.0557 39.9505zM17.8838 39.6463C17.9196 39.8399 17.7208 40.0414 17.4347 40.0888 17.1486 40.1363 16.8982 40.0217 16.8624 39.832 16.8267 39.6423 17.0333 39.4368 17.3115 39.3855 17.5897 39.3341 17.848 39.4526 17.8838 39.6463z"/></g><defs><clipPath id="anclip0_910_21"><path    d="M0 0H48V48H0z"/></clipPath></defs></symbol><symbol viewBox="0 0 48 48"     id="svg-Google-Negative"><g clip-path="url(#aoclip0_17_74)"><path fill-rule="evenodd" clip-rule="evenodd" d="M33.6866 13.0957C31.2086 10.7323 27.9016 9.44476 24.48 9.49767C18.2187 9.49767 12.9011 13.7218 11.0051 19.4098C9.99973 22.3905 9.99973 25.6182 11.0051 28.5989H11.0139C12.9187 34.2782 18.2275 38.5023 24.4888 38.5023C27.7208 38.5023 30.4956 37.6756 32.6461 36.2154V36.2095C35.177 34.534 36.9055 31.8972 37.4434 28.9165H24.48V19.6745H47.1175C47.3997 21.2795 47.532 22.9198 47.532 24.5512C47.532 31.8509 44.9232 38.0225 40.3841 42.2025L40.3888 42.2061C36.4116 45.8747 30.9529 48 24.48 48C15.4056 48 7.10718 42.8852 3.03296 34.7808C-0.371021 27.9993 -0.371012 20.0096 3.03298 13.228C7.10721 5.11485 15.4055 -3.06172e-05 24.48 -3.06172e-05C30.4414 -0.0705799 36.2 2.16936 40.5387 6.24359L33.6866 13.0957Z"   /></g><defs><clipPath id="aoclip0_17_74"><path    d="M0 0H48V48H0z"/></clipPath></defs></symbol><symbol viewBox="0 0 48 48"     id="svg-Google-Original"><g clip-path="url(#apclip0_17_40)"><path d="M47.532 24.5528C47.532 22.9214 47.3997 21.2811 47.1175 19.6761H24.48V28.9181H37.4434C36.9055 31.8988 35.177 34.5356 32.6461 36.2111V42.2078H40.3801C44.9217 38.0278 47.532 31.8547 47.532 24.5528Z" /><path d="M24.48 48.0016C30.9529 48.0016 36.4116 45.8764 40.3888 42.2078L32.6549 36.2111C30.5031 37.675 27.7252 38.5039 24.4888 38.5039C18.2275 38.5039 12.9187 34.2798 11.0139 28.6006H3.03296V34.7825C7.10718 42.8868 15.4056 48.0016 24.48 48.0016Z" /><path d="M11.0051 28.6006C9.99973 25.6199 9.99973 22.3922 11.0051 19.4115V13.2296H3.03298C-0.371021 20.0112 -0.371021 28.0009 3.03298 34.7825L11.0051 28.6006Z" /><path d="M24.48 9.49932C27.9016 9.44641 31.2086 10.7339 33.6866 13.0973L40.5387 6.24523C36.2 2.17101 30.4414 -0.068932 24.48 0.00161733C15.4055 0.00161733 7.10718 5.11644 3.03296 13.2296L11.005 19.4115C12.901 13.7235 18.2187 9.49932 24.48 9.49932Z" /></g><defs><clipPath id="apclip0_17_40"><path    d="M0 0H48V48H0z"/></clipPath></defs></symbol><symbol viewBox="0 0 48 48"     id="svg-Instagram-Negative"><path d="M24 4.32187C30.4125 4.32187 31.1719 4.35 33.6938 4.4625C36.0375 4.56562 37.3031 4.95938 38.1469 5.2875C39.2625 5.71875 40.0688 6.24375 40.9031 7.07812C41.7469 7.92188 42.2625 8.71875 42.6938 9.83438C43.0219 10.6781 43.4156 11.9531 43.5188 14.2875C43.6313 16.8187 43.6594 17.5781 43.6594 23.9813C43.6594 30.3938 43.6313 31.1531 43.5188 33.675C43.4156 36.0188 43.0219 37.2844 42.6938 38.1281C42.2625 39.2438 41.7375 40.05 40.9031 40.8844C40.0594 41.7281 39.2625 42.2438 38.1469 42.675C37.3031 43.0031 36.0281 43.3969 33.6938 43.5C31.1625 43.6125 30.4031 43.6406 24 43.6406C17.5875 43.6406 16.8281 43.6125 14.3063 43.5C11.9625 43.3969 10.6969 43.0031 9.85313 42.675C8.7375 42.2438 7.93125 41.7188 7.09688 40.8844C6.25313 40.0406 5.7375 39.2438 5.30625 38.1281C4.97813 37.2844 4.58438 36.0094 4.48125 33.675C4.36875 31.1438 4.34063 30.3844 4.34063 23.9813C4.34063 17.5688 4.36875 16.8094 4.48125 14.2875C4.58438 11.9437 4.97813 10.6781 5.30625 9.83438C5.7375 8.71875 6.2625 7.9125 7.09688 7.07812C7.94063 6.23438 8.7375 5.71875 9.85313 5.2875C10.6969 4.95938 11.9719 4.56562 14.3063 4.4625C16.8281 4.35 17.5875 4.32187 24 4.32187ZM24 0C17.4844 0 16.6688 0.028125 14.1094 0.140625C11.5594 0.253125 9.80625 0.665625 8.2875 1.25625C6.70312 1.875 5.3625 2.69062 4.03125 4.03125C2.69063 5.3625 1.875 6.70313 1.25625 8.27813C0.665625 9.80625 0.253125 11.55 0.140625 14.1C0.028125 16.6687 0 17.4844 0 24C0 30.5156 0.028125 31.3312 0.140625 33.8906C0.253125 36.4406 0.665625 38.1938 1.25625 39.7125C1.875 41.2969 2.69063 42.6375 4.03125 43.9688C5.3625 45.3 6.70313 46.125 8.27813 46.7344C9.80625 47.325 11.55 47.7375 14.1 47.85C16.6594 47.9625 17.475 47.9906 23.9906 47.9906C30.5063 47.9906 31.3219 47.9625 33.8813 47.85C36.4313 47.7375 38.1844 47.325 39.7031 46.7344C41.2781 46.125 42.6188 45.3 43.95 43.9688C45.2812 42.6375 46.1063 41.2969 46.7156 39.7219C47.3063 38.1938 47.7188 36.45 47.8313 33.9C47.9438 31.3406 47.9719 30.525 47.9719 24.0094C47.9719 17.4938 47.9438 16.6781 47.8313 14.1188C47.7188 11.5688 47.3063 9.81563 46.7156 8.29688C46.125 6.70312 45.3094 5.3625 43.9688 4.03125C42.6375 2.7 41.2969 1.875 39.7219 1.26562C38.1938 0.675 36.45 0.2625 33.9 0.15C31.3313 0.028125 30.5156 0 24 0Z"   /><path d="M24 11.6719C17.1938 11.6719 11.6719 17.1938 11.6719 24 11.6719 30.8062 17.1938 36.3281 24 36.3281 30.8062 36.3281 36.3281 30.8062 36.3281 24 36.3281 17.1938 30.8062 11.6719 24 11.6719zM24 31.9969C19.5844 31.9969 16.0031 28.4156 16.0031 24 16.0031 19.5844 19.5844 16.0031 24 16.0031 28.4156 16.0031 31.9969 19.5844 31.9969 24 31.9969 28.4156 28.4156 31.9969 24 31.9969zM39.6937 11.1843C39.6937 12.778 38.4 14.0624 36.8156 14.0624 35.2219 14.0624 33.9375 12.7687 33.9375 11.1843 33.9375 9.59053 35.2313 8.30615 36.8156 8.30615 38.4 8.30615 39.6937 9.5999 39.6937 11.1843z"   /></symbol><symbol viewBox="0 0 48 48"     id="svg-Instagram-Original"><path d="M24 4.32187C30.4125 4.32187 31.1719 4.35 33.6938 4.4625C36.0375 4.56562 37.3031 4.95938 38.1469 5.2875C39.2625 5.71875 40.0688 6.24375 40.9031 7.07812C41.7469 7.92188 42.2625 8.71875 42.6938 9.83438C43.0219 10.6781 43.4156 11.9531 43.5188 14.2875C43.6313 16.8187 43.6594 17.5781 43.6594 23.9813C43.6594 30.3938 43.6313 31.1531 43.5188 33.675C43.4156 36.0188 43.0219 37.2844 42.6938 38.1281C42.2625 39.2438 41.7375 40.05 40.9031 40.8844C40.0594 41.7281 39.2625 42.2438 38.1469 42.675C37.3031 43.0031 36.0281 43.3969 33.6938 43.5C31.1625 43.6125 30.4031 43.6406 24 43.6406C17.5875 43.6406 16.8281 43.6125 14.3063 43.5C11.9625 43.3969 10.6969 43.0031 9.85313 42.675C8.7375 42.2438 7.93125 41.7188 7.09688 40.8844C6.25313 40.0406 5.7375 39.2438 5.30625 38.1281C4.97813 37.2844 4.58438 36.0094 4.48125 33.675C4.36875 31.1438 4.34063 30.3844 4.34063 23.9813C4.34063 17.5688 4.36875 16.8094 4.48125 14.2875C4.58438 11.9437 4.97813 10.6781 5.30625 9.83438C5.7375 8.71875 6.2625 7.9125 7.09688 7.07812C7.94063 6.23438 8.7375 5.71875 9.85313 5.2875C10.6969 4.95938 11.9719 4.56562 14.3063 4.4625C16.8281 4.35 17.5875 4.32187 24 4.32187ZM24 0C17.4844 0 16.6688 0.028125 14.1094 0.140625C11.5594 0.253125 9.80625 0.665625 8.2875 1.25625C6.70312 1.875 5.3625 2.69062 4.03125 4.03125C2.69063 5.3625 1.875 6.70313 1.25625 8.27813C0.665625 9.80625 0.253125 11.55 0.140625 14.1C0.028125 16.6687 0 17.4844 0 24C0 30.5156 0.028125 31.3312 0.140625 33.8906C0.253125 36.4406 0.665625 38.1938 1.25625 39.7125C1.875 41.2969 2.69063 42.6375 4.03125 43.9688C5.3625 45.3 6.70313 46.125 8.27813 46.7344C9.80625 47.325 11.55 47.7375 14.1 47.85C16.6594 47.9625 17.475 47.9906 23.9906 47.9906C30.5063 47.9906 31.3219 47.9625 33.8813 47.85C36.4313 47.7375 38.1844 47.325 39.7031 46.7344C41.2781 46.125 42.6188 45.3 43.95 43.9688C45.2812 42.6375 46.1063 41.2969 46.7156 39.7219C47.3063 38.1938 47.7188 36.45 47.8313 33.9C47.9438 31.3406 47.9719 30.525 47.9719 24.0094C47.9719 17.4938 47.9438 16.6781 47.8313 14.1188C47.7188 11.5688 47.3063 9.81563 46.7156 8.29688C46.125 6.70312 45.3094 5.3625 43.9688 4.03125C42.6375 2.7 41.2969 1.875 39.7219 1.26562C38.1938 0.675 36.45 0.2625 33.9 0.15C31.3313 0.028125 30.5156 0 24 0Z"/><path d="M24 11.6719C17.1938 11.6719 11.6719 17.1938 11.6719 24 11.6719 30.8062 17.1938 36.3281 24 36.3281 30.8062 36.3281 36.3281 30.8062 36.3281 24 36.3281 17.1938 30.8062 11.6719 24 11.6719zM24 31.9969C19.5844 31.9969 16.0031 28.4156 16.0031 24 16.0031 19.5844 19.5844 16.0031 24 16.0031 28.4156 16.0031 31.9969 19.5844 31.9969 24 31.9969 28.4156 28.4156 31.9969 24 31.9969zM39.6937 11.1844C39.6937 12.7782 38.4 14.0625 36.8156 14.0625 35.2219 14.0625 33.9375 12.7688 33.9375 11.1844 33.9375 9.59065 35.2313 8.30627 36.8156 8.30627 38.4 8.30627 39.6937 9.60003 39.6937 11.1844z" /></symbol><symbol viewBox="0 0 48 48"     id="svg-LinkedIn-Negative"><path d="M44.4469 0H3.54375C1.58437 0 0 1.54688 0 3.45938V44.5312C0 46.4437 1.58437 48 3.54375 48H44.4469C46.4063 48 48 46.4438 48 44.5406V3.45938C48 1.54688 46.4063 0 44.4469 0ZM14.2406 40.9031H7.11563V17.9906H14.2406V40.9031ZM10.6781 14.8688C8.39063 14.8688 6.54375 13.0219 6.54375 10.7437C6.54375 8.46562 8.39063 6.61875 10.6781 6.61875C12.9563 6.61875 14.8031 8.46562 14.8031 10.7437C14.8031 13.0125 12.9563 14.8688 10.6781 14.8688ZM40.9031 40.9031H33.7875V29.7656C33.7875 27.1125 33.7406 23.6906 30.0844 23.6906C26.3812 23.6906 25.8187 26.5875 25.8187 29.5781V40.9031H18.7125V17.9906H25.5375V21.1219H25.6312C26.5781 19.3219 28.9031 17.4188 32.3625 17.4188C39.5719 17.4188 40.9031 22.1625 40.9031 28.3313V40.9031V40.9031Z"   /></symbol><symbol viewBox="0 0 48 48"     id="svg-LinkedIn-Original"><g clip-path="url(#atclip0_17_32)"><path d="M44.4567 0H3.54333C2.60358 0 1.70232 0.373315 1.03782 1.03782C0.373315 1.70232 0 2.60358 0 3.54333V44.4567C0 45.3964 0.373315 46.2977 1.03782 46.9622C1.70232 47.6267 2.60358 48 3.54333 48H44.4567C45.3964 48 46.2977 47.6267 46.9622 46.9622C47.6267 46.2977 48 45.3964 48 44.4567V3.54333C48 2.60358 47.6267 1.70232 46.9622 1.03782C46.2977 0.373315 45.3964 0 44.4567 0ZM14.3067 40.89H7.09V17.9667H14.3067V40.89ZM10.6933 14.79C9.87473 14.7854 9.07583 14.5384 8.39747 14.0802C7.71911 13.622 7.19168 12.9731 6.88175 12.2154C6.57183 11.4577 6.4933 10.6252 6.65606 9.82291C6.81883 9.02063 7.2156 8.28455 7.79631 7.70756C8.37702 7.13057 9.11563 6.73853 9.91893 6.58092C10.7222 6.42331 11.5542 6.50719 12.3099 6.82197C13.0656 7.13675 13.7111 7.66833 14.1649 8.34962C14.6188 9.03092 14.8606 9.83138 14.86 10.65C14.8677 11.1981 14.765 11.7421 14.558 12.2496C14.351 12.7571 14.044 13.2178 13.6551 13.6041C13.2663 13.9905 12.8037 14.2946 12.2948 14.4983C11.786 14.702 11.2413 14.8012 10.6933 14.79ZM40.9067 40.91H33.6933V28.3867C33.6933 24.6933 32.1233 23.5533 30.0967 23.5533C27.9567 23.5533 25.8567 25.1667 25.8567 28.48V40.91H18.64V17.9833H25.58V21.16H25.6733C26.37 19.75 28.81 17.34 32.5333 17.34C36.56 17.34 40.91 19.73 40.91 26.73L40.9067 40.91Z"/></g><defs><clipPath id="atclip0_17_32"><path    d="M0 0H48V48H0z"/></clipPath></defs></symbol><symbol viewBox="0 0 48 48"     id="svg-Medium-Negative"><path d="M27.0749 23.6554C27.0749 31.1968 21.0139 37.3103 13.5377 37.3103 6.06146 37.3103 0 31.1955 0 23.6554 0 16.1153 6.061 10 13.5377 10 21.0143 10 27.0749 16.114 27.0749 23.6554zM41.9256 23.6554C41.9256 30.7541 38.8951 36.5109 35.1568 36.5109 31.4184 36.5109 28.3879 30.7541 28.3879 23.6554 28.3879 16.5568 31.418 10.7999 35.1563 10.7999 38.8947 10.7999 41.9252 16.555 41.9252 23.6554M47.9999 23.6554C47.9999 30.0141 46.9342 35.1719 45.6193 35.1719 44.3043 35.1719 43.2391 30.0154 43.2391 23.6554 43.2391 17.2954 44.3048 12.1389 45.6193 12.1389 46.9338 12.1389 47.9999 17.2949 47.9999 23.6554z"   /></symbol><symbol viewBox="0 0 48 48"     id="svg-Medium-Original"><path d="M27.0749 23.6554C27.0749 31.1968 21.0139 37.3103 13.5377 37.3103 6.06146 37.3103 0 31.1955 0 23.6554 0 16.1153 6.061 10 13.5377 10 21.0143 10 27.0749 16.114 27.0749 23.6554zM41.9256 23.6554C41.9256 30.754 38.8951 36.5109 35.1568 36.5109 31.4184 36.5109 28.3879 30.754 28.3879 23.6554 28.3879 16.5568 31.418 10.7999 35.1563 10.7999 38.8947 10.7999 41.9252 16.5549 41.9252 23.6554M47.9999 23.6554C47.9999 30.014 46.9342 35.1719 45.6193 35.1719 44.3043 35.1719 43.2391 30.0154 43.2391 23.6554 43.2391 17.2954 44.3048 12.1389 45.6193 12.1389 46.9338 12.1389 47.9999 17.2949 47.9999 23.6554z"   /></symbol><symbol viewBox="0 0 48 48"     id="svg-Pinterest-Negative"><path d="M24 0C10.7438 0 0 10.7438 0 24C0 34.1719 6.32812 42.8531 15.2531 46.35C15.0469 44.4469 14.85 41.5406 15.3375 39.4688C15.7781 37.5938 18.15 27.5437 18.15 27.5437C18.15 27.5437 17.4281 26.1094 17.4281 23.9813C17.4281 20.6438 19.3594 18.15 21.7687 18.15C23.8125 18.15 24.8063 19.6875 24.8063 21.5344C24.8063 23.5969 23.4937 26.6719 22.8187 29.5219C22.2562 31.9125 24.0187 33.8625 26.3719 33.8625C30.6375 33.8625 33.9187 29.3625 33.9187 22.875C33.9187 17.1281 29.7937 13.1063 23.8969 13.1063C17.0719 13.1063 13.0594 18.225 13.0594 23.5219C13.0594 25.5844 13.8562 27.7969 14.85 28.9969C15.0469 29.2312 15.075 29.4469 15.0187 29.6813C14.8406 30.4406 14.4281 32.0719 14.3531 32.4C14.25 32.8406 14.0063 32.9344 13.5469 32.7188C10.5469 31.3219 8.67188 26.9438 8.67188 23.4188C8.67188 15.8438 14.175 8.89688 24.525 8.89688C32.85 8.89688 39.3187 14.8313 39.3187 22.7625C39.3187 31.0312 34.1063 37.6875 26.8688 37.6875C24.4406 37.6875 22.1531 36.4219 21.3656 34.9313C21.3656 34.9313 20.1656 39.5156 19.875 40.6406C19.3312 42.7219 17.8687 45.3375 16.8937 46.9313C19.1437 47.625 21.525 48 24 48C37.2562 48 48 37.2562 48 24C48 10.7438 37.2562 0 24 0Z"   /></symbol><symbol viewBox="0 0 48 48"     id="svg-Pinterest-Original"><g clip-path="url(#axclip0_17_34)"><path d="M24 48C37.2548 48 48 37.2548 48 24C48 10.7452 37.2548 0 24 0C10.7452 0 0 10.7452 0 24C0 37.2548 10.7452 48 24 48Z"   /><path d="M24 0C10.7457 0 0 10.7457 0 24C0 34.1728 6.32099 42.8642 15.2494 46.3605C15.0321 44.4642 14.8543 41.5407 15.3284 39.4667C15.763 37.5901 18.1333 27.5358 18.1333 27.5358C18.1333 27.5358 17.4222 26.0938 17.4222 23.9802C17.4222 20.642 19.358 18.1531 21.7679 18.1531C23.8222 18.1531 24.8099 19.6938 24.8099 21.5309C24.8099 23.5852 23.5062 26.6667 22.8148 29.5309C22.242 31.921 24.0198 33.8765 26.3704 33.8765C30.637 33.8765 33.916 29.3728 33.916 22.8938C33.916 17.1457 29.7877 13.1358 23.8815 13.1358C17.0469 13.1358 13.037 18.2519 13.037 23.5457C13.037 25.6 13.8272 27.8123 14.8148 29.0173C15.0123 29.2543 15.0321 29.4716 14.9728 29.7086C14.7951 30.4593 14.3802 32.0988 14.3012 32.4346C14.2025 32.8691 13.9457 32.9679 13.4914 32.7506C10.4889 31.3481 8.61235 26.9827 8.61235 23.4469C8.61235 15.8815 14.1037 8.9284 24.4741 8.9284C32.7901 8.9284 39.2691 14.8543 39.2691 22.7951C39.2691 31.0716 34.0543 37.7284 26.8247 37.7284C24.3951 37.7284 22.1037 36.4642 21.3333 34.963C21.3333 34.963 20.1284 39.5457 19.8321 40.6716C19.2988 42.7654 17.837 45.3728 16.8494 46.9728C19.1012 47.6642 21.4716 48.0395 23.9605 48.0395C37.2148 48.0395 47.9605 37.2938 47.9605 24.0395C48 10.7457 37.2543 0 24 0Z"/></g><defs><clipPath id="axclip0_17_34"><path    d="M0 0H48V48H0z"/></clipPath></defs></symbol><symbol viewBox="0 0 48 48"     id="svg-Reddit-Negative"><path fill-rule="evenodd" clip-rule="evenodd" d="M48 24C48 37.2548 37.2548 48 24 48C10.7452 48 0 37.2548 0 24C0 10.7452 10.7452 0 24 0C37.2548 0 48 10.7452 48 24ZM36.4912 20.4912C38.4281 20.4912 40 22.0631 40 24C40 25.4315 39.1298 26.6666 37.979 27.228C38.0351 27.5649 38.0632 27.9017 38.0632 28.2666C38.0632 33.6561 31.8035 38.007 24.0562 38.007C16.3088 38.007 10.0491 33.6561 10.0491 28.2666C10.0491 27.9017 10.0772 27.5368 10.1333 27.2C8.89826 26.6385 8.05615 25.4315 8.05615 24C8.05615 22.0631 9.62808 20.4912 11.5649 20.4912C12.4912 20.4912 13.3614 20.8842 13.979 21.4736C16.393 19.7052 19.7333 18.6105 23.4667 18.4982L25.2351 10.1333C25.2912 9.96486 25.3755 9.82451 25.5158 9.7403C25.6562 9.65609 25.8246 9.62802 25.993 9.65609L31.8035 10.8912C32.1965 10.0491 33.0386 9.48767 34.0211 9.48767C35.3965 9.48767 36.5193 10.6105 36.5193 11.9859C36.5193 13.3614 35.3965 14.4842 34.0211 14.4842C32.6737 14.4842 31.579 13.4175 31.5228 12.0982L26.3298 11.0035L24.7298 18.4982C28.379 18.6385 31.6912 19.7614 34.0772 21.4736C34.6948 20.8561 35.5369 20.4912 36.4912 20.4912ZM18.4983 24C17.1228 24 16 25.1228 16 26.4982C16 27.8736 17.1228 28.9964 18.4983 28.9964C19.8737 28.9964 20.9965 27.8736 20.9965 26.4982C20.9965 25.1228 19.8737 24 18.4983 24ZM24.0281 34.9193C24.9825 34.9193 28.2386 34.807 29.9509 33.0947C30.2035 32.8421 30.2035 32.4491 30.007 32.1684C29.7544 31.9157 29.3333 31.9157 29.0807 32.1684C27.986 33.235 25.7123 33.628 24.0562 33.628C22.4 33.628 20.0983 33.235 19.0316 32.1684C18.779 31.9157 18.3579 31.9157 18.1053 32.1684C17.8526 32.421 17.8526 32.8421 18.1053 33.0947C19.7895 34.7789 23.0737 34.9193 24.0281 34.9193ZM27.0035 26.4982C27.0035 27.8736 28.1263 28.9964 29.5018 28.9964C30.8772 28.9964 32 27.8736 32 26.4982C32 25.1228 30.8772 24 29.5018 24C28.1263 24 27.0035 25.1228 27.0035 26.4982Z"   /></symbol><symbol viewBox="0 0 48 48"     id="svg-Reddit-Original"><path d="M24 48C37.2548 48 48 37.2548 48 24C48 10.7452 37.2548 0 24 0C10.7452 0 0 10.7452 0 24C0 37.2548 10.7452 48 24 48Z" /><path d="M40 24C40 22.0632 38.4281 20.4912 36.4912 20.4912C35.5368 20.4912 34.6947 20.8562 34.0772 21.4737C31.6912 19.7614 28.3789 18.6386 24.7298 18.4983L26.3298 11.0035L31.5228 12.0983C31.5789 13.4176 32.6737 14.4842 34.021 14.4842C35.3965 14.4842 36.5193 13.3614 36.5193 11.986C36.5193 10.6105 35.3965 9.48773 34.021 9.48773C33.0386 9.48773 32.1965 10.0491 31.8035 10.8912L25.993 9.65615C25.8245 9.62808 25.6561 9.65615 25.5158 9.74036C25.3754 9.82457 25.2912 9.96493 25.2351 10.1333L23.4666 18.4983C19.7333 18.6105 16.393 19.7053 13.9789 21.4737C13.3614 20.8842 12.4912 20.4912 11.5649 20.4912C9.62805 20.4912 8.05612 22.0632 8.05612 24C8.05612 25.4316 8.89823 26.6386 10.1333 27.2C10.0772 27.5369 10.0491 27.9018 10.0491 28.2667C10.0491 33.6562 16.3088 38.007 24.0561 38.007C31.8035 38.007 38.0631 33.6562 38.0631 28.2667C38.0631 27.9018 38.0351 27.5649 37.9789 27.2281C39.1298 26.6667 40 25.4316 40 24ZM16 26.4983C16 25.1228 17.1228 24 18.4982 24C19.8737 24 20.9965 25.1228 20.9965 26.4983C20.9965 27.8737 19.8737 28.9965 18.4982 28.9965C17.1228 28.9965 16 27.8737 16 26.4983ZM29.9509 33.0948C28.2386 34.807 24.9824 34.9193 24.0281 34.9193C23.0737 34.9193 19.7895 34.779 18.1052 33.0948C17.8526 32.8421 17.8526 32.4211 18.1052 32.1684C18.3579 31.9158 18.7789 31.9158 19.0316 32.1684C20.0982 33.2351 22.4 33.6281 24.0561 33.6281C25.7123 33.6281 27.9859 33.2351 29.0807 32.1684C29.3333 31.9158 29.7544 31.9158 30.007 32.1684C30.2035 32.4491 30.2035 32.8421 29.9509 33.0948ZM29.5017 28.9965C28.1263 28.9965 27.0035 27.8737 27.0035 26.4983C27.0035 25.1228 28.1263 24 29.5017 24C30.8772 24 32 25.1228 32 26.4983C32 27.8737 30.8772 28.9965 29.5017 28.9965Z"   /></symbol><symbol viewBox="0 0 48 48"     id="svg-Signal-Negative"><path d="M18.2382 0.700643L18.7769 2.88262C16.6538 3.40733 14.6218 4.24863 12.7492 5.37825L11.5968 3.44857C13.6581 2.20031 15.8976 1.27368 18.2382 0.700643ZM29.7618 0.700643L29.2231 2.88262C31.3462 3.40733 33.3782 4.24863 35.2508 5.37825L36.4168 3.44857C34.3501 2.2014 32.1063 1.27489 29.7618 0.700643ZM3.44854 11.5901C2.20144 13.6543 1.27491 15.8959 0.700615 18.2383L2.88259 18.7769C3.4073 16.6539 4.2486 14.6219 5.37822 12.7492L3.44854 11.5901ZM2.24845 24C2.24829 22.909 2.33034 21.8194 2.49392 20.7407L0.271038 20.3998C-0.0903461 22.7841 -0.0903461 25.2092 0.271038 27.5935L2.49392 27.2593C2.3306 26.1806 2.24854 25.0911 2.24845 24ZM36.4032 44.5447L35.2508 42.6218C33.3811 43.7525 31.3512 44.5939 29.2299 45.1174L29.7686 47.2994C32.1063 46.7209 34.3432 45.7921 36.4032 44.5447ZM45.7515 24C45.7515 25.0911 45.6694 26.1806 45.5061 27.2593L47.729 27.5935C48.0903 25.2092 48.0903 22.7841 47.729 20.3998L45.5061 20.7407C45.6697 21.8194 45.7517 22.909 45.7515 24ZM47.2994 29.755L45.1174 29.2163C44.5939 31.3419 43.7526 33.3764 42.6218 35.2508L44.5515 36.41C45.7998 34.3439 46.7263 32.0999 47.2994 29.755ZM27.2593 45.5061C25.0988 45.8334 22.9012 45.8334 20.7407 45.5061L20.4066 47.729C22.7886 48.0904 25.2114 48.0904 27.5934 47.729L27.2593 45.5061ZM41.5103 36.9009C40.2143 38.6584 38.6603 40.2101 36.9009 41.5035L38.2374 43.3173C40.1753 41.8907 41.8897 40.1832 43.3241 38.251L41.5103 36.9009ZM36.9009 6.48969C38.6605 7.78559 40.2144 9.33955 41.5103 11.0991L43.3241 9.74901C41.8948 7.81512 40.1849 6.10527 38.251 4.67593L36.9009 6.48969ZM6.48966 11.0991C7.78556 9.33955 9.33952 7.78559 11.0991 6.48969L9.74899 4.67593C7.81509 6.10527 6.10524 7.81512 4.6759 9.74901L6.48966 11.0991ZM44.5515 11.5901L42.6218 12.7492C43.7524 14.6189 44.5938 16.6488 45.1174 18.7701L47.2994 18.2314C46.725 15.8913 45.7985 13.6519 44.5515 11.5901ZM20.7407 2.49395C22.9012 2.16662 25.0988 2.16662 27.2593 2.49395L27.5934 0.271067C25.2114 -0.0903557 22.7886 -0.0903557 20.4066 0.271067L20.7407 2.49395ZM7.64202 43.9174L2.99851 44.9947L4.08267 40.3512L1.89388 39.8398L0.809713 44.4833C0.741878 44.7712 0.731468 45.0696 0.779078 45.3616C0.826688 45.6535 0.931384 45.9332 1.08718 46.1846C1.24297 46.436 1.4468 46.6542 1.68702 46.8268C1.92723 46.9994 2.19911 47.1229 2.48711 47.1903C2.82391 47.2653 3.1731 47.2653 3.50991 47.1903L8.15342 46.1198L7.64202 43.9174ZM2.35755 37.8351L4.55316 38.3397L5.30321 35.1213C4.20789 33.2839 3.39208 31.2938 2.88259 29.2163L0.700615 29.755C1.19141 31.7436 1.93381 33.6615 2.90986 35.4622L2.35755 37.8351ZM12.8583 42.7036L9.63989 43.4537L10.1513 45.6493L12.5174 45.097C14.3168 46.076 16.235 46.8185 18.2246 47.3062L18.7633 45.1243C16.6922 44.6081 14.7092 43.7878 12.8788 42.69L12.8583 42.7036ZM24 4.49864C13.2265 4.50546 4.50543 13.2402 4.50543 24.0068C4.51136 27.674 5.54866 31.2656 7.49883 34.3712L5.62369 42.3763L13.622 40.5012C22.7385 46.2357 34.7803 43.5014 40.5148 34.3917C46.2493 25.2819 43.5218 13.2402 34.4121 7.49885C31.2934 5.53767 27.6841 4.49764 24 4.49864Z"   /></symbol><symbol viewBox="0 0 48 48"     id="svg-Signal-Original"><path d="M18.2382 0.700643L18.7769 2.88262C16.6538 3.40733 14.6218 4.24863 12.7492 5.37825L11.5968 3.44857C13.6581 2.20031 15.8976 1.27368 18.2382 0.700643ZM29.7618 0.700643L29.2231 2.88262C31.3462 3.40733 33.3782 4.24863 35.2508 5.37825L36.4168 3.44857C34.3501 2.2014 32.1063 1.27489 29.7618 0.700643ZM3.44854 11.5901C2.20144 13.6543 1.27491 15.8959 0.700615 18.2383L2.88259 18.7769C3.4073 16.6539 4.2486 14.6219 5.37822 12.7492L3.44854 11.5901ZM2.24845 24C2.24829 22.909 2.33034 21.8194 2.49392 20.7407L0.271038 20.3998C-0.0903461 22.7841 -0.0903461 25.2092 0.271038 27.5935L2.49392 27.2593C2.3306 26.1806 2.24854 25.0911 2.24845 24ZM36.4032 44.5447L35.2508 42.6218C33.3811 43.7525 31.3512 44.5939 29.2299 45.1174L29.7686 47.2994C32.1063 46.7209 34.3432 45.7921 36.4032 44.5447ZM45.7515 24C45.7515 25.0911 45.6694 26.1806 45.5061 27.2593L47.729 27.5935C48.0903 25.2092 48.0903 22.7841 47.729 20.3998L45.5061 20.7407C45.6697 21.8194 45.7517 22.909 45.7515 24ZM47.2994 29.755L45.1174 29.2163C44.5939 31.3419 43.7526 33.3764 42.6218 35.2508L44.5515 36.41C45.7998 34.3439 46.7263 32.0999 47.2994 29.755ZM27.2593 45.5061C25.0988 45.8334 22.9012 45.8334 20.7407 45.5061L20.4066 47.729C22.7886 48.0904 25.2114 48.0904 27.5934 47.729L27.2593 45.5061ZM41.5103 36.9009C40.2143 38.6584 38.6603 40.2101 36.9009 41.5035L38.2374 43.3173C40.1753 41.8907 41.8897 40.1832 43.3241 38.251L41.5103 36.9009ZM36.9009 6.48969C38.6605 7.78559 40.2144 9.33955 41.5103 11.0991L43.3241 9.74901C41.8948 7.81512 40.1849 6.10527 38.251 4.67593L36.9009 6.48969ZM6.48966 11.0991C7.78556 9.33955 9.33952 7.78559 11.0991 6.48969L9.74899 4.67593C7.81509 6.10527 6.10524 7.81512 4.6759 9.74901L6.48966 11.0991ZM44.5515 11.5901L42.6218 12.7492C43.7524 14.6189 44.5938 16.6488 45.1174 18.7701L47.2994 18.2314C46.725 15.8913 45.7985 13.6519 44.5515 11.5901ZM20.7407 2.49395C22.9012 2.16662 25.0988 2.16662 27.2593 2.49395L27.5934 0.271067C25.2114 -0.0903557 22.7886 -0.0903557 20.4066 0.271067L20.7407 2.49395ZM7.64202 43.9174L2.99851 44.9947L4.08267 40.3512L1.89388 39.8398L0.809713 44.4833C0.741878 44.7712 0.731468 45.0696 0.779078 45.3616C0.826688 45.6535 0.931384 45.9332 1.08718 46.1846C1.24297 46.436 1.4468 46.6542 1.68702 46.8268C1.92723 46.9994 2.19911 47.1229 2.48711 47.1903C2.82391 47.2653 3.1731 47.2653 3.50991 47.1903L8.15342 46.1198L7.64202 43.9174ZM2.35755 37.8351L4.55316 38.3397L5.30321 35.1213C4.20789 33.2839 3.39208 31.2938 2.88259 29.2163L0.700615 29.755C1.19141 31.7436 1.93381 33.6615 2.90986 35.4622L2.35755 37.8351ZM12.8583 42.7036L9.63989 43.4537L10.1513 45.6493L12.5174 45.097C14.3168 46.076 16.235 46.8185 18.2246 47.3062L18.7633 45.1243C16.6922 44.6081 14.7092 43.7878 12.8788 42.69L12.8583 42.7036ZM24 4.49864C13.2265 4.50546 4.50543 13.2402 4.50543 24.0068C4.51136 27.674 5.54866 31.2656 7.49883 34.3712L5.62369 42.3763L13.622 40.5012C22.7385 46.2357 34.7803 43.5014 40.5148 34.3917C46.2493 25.2819 43.5218 13.2402 34.4121 7.49885C31.2934 5.53767 27.6841 4.49764 24 4.49864Z" /></symbol><symbol viewBox="0 0 48 48"     id="svg-Skype-Negative"><path d="M24.0953 38.4458C16.1217 38.4458 12.4786 34.3839 12.4786 31.4047C12.4775 30.6939 12.7692 30.0142 13.2851 29.5252C13.8009 29.0363 14.4953 28.7814 15.205 28.8205C18.6189 28.8205 17.7259 33.9414 24.0953 33.9414C27.3512 33.9414 29.2636 31.9816 29.2636 30.1403C29.2636 29.0339 28.6314 27.7695 26.4819 27.2637L19.3696 25.4699C13.6561 24.0158 12.6604 20.839 12.6604 17.8914C12.6604 11.7748 18.2554 9.56209 23.5817 9.56209C28.4891 9.56209 34.3212 12.2727 34.3212 15.9394C34.3212 17.5199 33.0015 18.3655 31.4684 18.3655C28.5524 18.3655 29.0423 14.272 23.1786 14.272C20.2626 14.272 18.7295 15.6391 18.7295 17.5515C18.7295 19.464 20.9975 20.112 22.989 20.5466L28.2363 21.732C33.9893 23.028 35.5224 26.4024 35.5224 29.6345C35.5224 34.6052 31.6738 38.4458 24.0874 38.4458H24.0953ZM46.1118 27.9276C46.3396 26.6228 46.4533 25.3008 46.4516 23.9763C46.4795 17.3233 43.5562 11.0002 38.4697 6.7117C33.3833 2.42314 26.6572 0.61047 20.1046 1.7623C18.0905 0.602705 15.8062 -0.00516098 13.4822 3.30082e-05C8.71195 0.0291736 4.31489 2.5858 1.92977 6.71709C-0.455362 10.8484 -0.470791 15.9347 1.88923 20.0804C0.572355 27.3162 2.87912 34.7385 8.06547 39.9532C13.2518 45.1679 20.6614 47.5151 27.9043 46.2377C29.9159 47.3963 32.1974 48.0042 34.5188 48C39.2866 47.9693 43.681 45.4137 46.0656 41.2849C48.4502 37.1561 48.4678 32.0727 46.1118 27.9276Z"   /></symbol><symbol viewBox="0 0 48 48"     id="svg-Skype-Original"><path d="M24.0953 38.4458C16.1217 38.4458 12.4786 34.3839 12.4786 31.4047C12.4775 30.6939 12.7692 30.0142 13.2851 29.5252C13.8009 29.0363 14.4953 28.7814 15.205 28.8205C18.6189 28.8205 17.7259 33.9414 24.0953 33.9414C27.3512 33.9414 29.2636 31.9816 29.2636 30.1403C29.2636 29.0339 28.6314 27.7695 26.4819 27.2637L19.3696 25.4699C13.6561 24.0158 12.6604 20.839 12.6604 17.8914C12.6604 11.7748 18.2554 9.56209 23.5817 9.56209C28.4891 9.56209 34.3212 12.2727 34.3212 15.9394C34.3212 17.5199 33.0015 18.3655 31.4684 18.3655C28.5524 18.3655 29.0423 14.272 23.1786 14.272C20.2626 14.272 18.7295 15.6391 18.7295 17.5515C18.7295 19.464 20.9975 20.112 22.989 20.5466L28.2363 21.732C33.9893 23.028 35.5224 26.4024 35.5224 29.6345C35.5224 34.6052 31.6738 38.4458 24.0874 38.4458H24.0953ZM46.1118 27.9276C46.3396 26.6228 46.4533 25.3008 46.4516 23.9763C46.4795 17.3233 43.5562 11.0002 38.4697 6.7117C33.3833 2.42314 26.6572 0.61047 20.1046 1.7623C18.0905 0.602705 15.8062 -0.00516098 13.4822 3.30082e-05C8.71195 0.0291736 4.31489 2.5858 1.92977 6.71709C-0.455362 10.8484 -0.470791 15.9347 1.88923 20.0804C0.572355 27.3162 2.87912 34.7385 8.06547 39.9532C13.2518 45.1679 20.6614 47.5151 27.9043 46.2377C29.9159 47.3963 32.1974 48.0042 34.5188 48C39.2866 47.9693 43.681 45.4137 46.0656 41.2849C48.4502 37.1561 48.4678 32.0727 46.1118 27.9276Z"/></symbol><symbol viewBox="0 0 48 48"     id="svg-Snapchat-Negative"><path d="M47.8265 34.9152C47.4955 34.0082 46.8582 33.5179 46.135 33.1257C46.0001 33.0521 45.8776 32.9786 45.7673 32.9296C45.5466 32.8192 45.326 32.7089 45.1054 32.5986C42.8501 31.3974 41.085 29.902 39.8716 28.1125C39.5284 27.6099 39.2219 27.0706 38.9768 26.519C38.8665 26.2249 38.8787 26.0533 38.9523 25.8939C39.0258 25.7714 39.1239 25.6733 39.2464 25.5875C39.6387 25.3301 40.0309 25.0727 40.3006 24.9011C40.7786 24.5824 41.1708 24.3373 41.416 24.1657C42.3353 23.516 42.9849 22.8296 43.3894 22.0574C43.9655 20.9788 44.039 19.7163 43.5977 18.5764C42.9849 16.9585 41.465 15.9656 39.6142 15.9656C39.2219 15.9656 38.842 16.0024 38.4497 16.0882C38.3517 16.1127 38.2414 16.1372 38.1433 16.1617C38.1556 15.0586 38.131 13.8942 38.033 12.742C37.6898 8.70937 36.2679 6.60114 34.7971 4.9219C33.8533 3.86778 32.7501 2.97301 31.5122 2.27435C29.2814 0.999606 26.7441 0.349976 23.9863 0.349976C21.2284 0.349976 18.7034 0.999606 16.4726 2.27435C15.2346 2.97301 14.1315 3.86778 13.1877 4.9219C11.7168 6.60114 10.3073 8.72163 9.95179 12.742C9.85373 13.8942 9.82922 15.0586 9.84148 16.1617C9.74342 16.1372 9.64536 16.1127 9.53505 16.0882C9.15507 16.0024 8.76285 15.9656 8.38287 15.9656C6.53204 15.9656 5.01215 16.9707 4.39929 18.5764C3.95803 19.7163 4.03157 20.9788 4.60766 22.0574C5.01215 22.8296 5.66178 23.516 6.58107 24.1657C6.82621 24.3373 7.20618 24.5824 7.69647 24.9011C7.95387 25.0727 8.33384 25.3178 8.71382 25.563C8.84864 25.6488 8.95896 25.7591 9.04476 25.8939C9.1183 26.0533 9.13056 26.2249 9.00799 26.5436C8.76284 27.0829 8.46867 27.6099 8.12547 28.1002C6.93653 29.8407 5.22052 31.3239 3.03874 32.5128C1.88657 33.1257 0.685365 33.5302 0.170564 34.9152C-0.209408 35.9571 0.035735 37.1338 1.00405 38.1389C1.35951 38.5066 1.77625 38.8253 2.22977 39.0704C3.17357 39.5852 4.17866 39.9897 5.23278 40.2716C5.45341 40.3329 5.64952 40.4187 5.83338 40.5413C6.18884 40.8477 6.13981 41.3135 6.60558 41.9999C6.83847 42.3553 7.1449 42.6618 7.4881 42.9069C8.48093 43.5933 9.59633 43.6301 10.773 43.6791C11.8394 43.7159 13.0406 43.7649 14.4257 44.2184C15.0017 44.4023 15.5901 44.77 16.2765 45.199C17.9312 46.2163 20.1865 47.6014 23.974 47.6014C27.7615 47.6014 30.029 46.2041 31.696 45.1867C32.3824 44.77 32.9708 44.4023 33.5223 44.2184C34.8951 43.7649 36.1086 43.7159 37.175 43.6791C38.3517 43.6301 39.4671 43.5933 40.4599 42.9069C40.8767 42.6127 41.2198 42.245 41.465 41.8037C41.8082 41.2277 41.7959 40.8232 42.1146 40.5413C42.2862 40.4187 42.4823 40.3329 42.6785 40.2839C43.7326 40.0019 44.7622 39.5975 45.7182 39.0704C46.1963 38.813 46.6375 38.4698 47.0052 38.0653L47.0175 38.0531C47.9736 37.0725 48.2064 35.9203 47.8265 34.9152ZM44.468 36.717C42.4211 37.8447 41.0483 37.7221 39.9941 38.4085C39.0871 38.9846 39.6264 40.2348 38.9768 40.6883C38.1678 41.2399 35.7899 40.6516 32.7256 41.6689C30.1884 42.5024 28.5827 44.9171 24.023 44.9171C19.4634 44.9171 17.8944 42.5147 15.3204 41.6689C12.2561 40.6516 9.87825 41.2522 9.06927 40.6883C8.41964 40.2348 8.9467 38.9846 8.05193 38.4085C6.98556 37.7221 5.62501 37.8447 3.57806 36.717C2.26654 35.9938 3.01423 35.5526 3.44323 35.3442C10.8711 31.7529 12.06 26.2004 12.1091 25.7836C12.1703 25.2811 12.2439 24.8888 11.6923 24.3863C11.1653 23.896 8.81187 22.4374 8.14999 21.9839C7.07135 21.2239 6.59333 20.4763 6.94878 19.5447C7.19393 18.9073 7.79453 18.6622 8.41964 18.6622C8.61576 18.6622 8.81187 18.6867 9.00799 18.7235C10.1969 18.9809 11.3491 19.5692 12.011 19.7408C12.0968 19.7653 12.1703 19.7776 12.2561 19.7776C12.6116 19.7776 12.7342 19.5937 12.7097 19.1893C12.6361 17.89 12.4523 15.365 12.6606 12.9994C12.9425 9.75123 13.9844 8.13328 15.2346 6.71145C15.8352 6.02505 18.6421 3.05881 24.023 3.05881C29.4039 3.05881 32.2108 6.01279 32.8114 6.69919C34.0617 8.12103 35.1035 9.73897 35.3854 12.9871C35.5938 15.3528 35.4099 17.8777 35.3241 19.177C35.2996 19.606 35.4222 19.7653 35.7777 19.7653C35.8635 19.7653 35.937 19.7531 36.0228 19.7286C36.6847 19.5692 37.8369 18.9686 39.0258 18.7112C39.2219 18.6622 39.418 18.6499 39.6142 18.6499C40.2393 18.6499 40.8399 18.8951 41.085 19.5325C41.4405 20.464 40.9625 21.2117 39.8838 21.9716C39.2342 22.4251 36.8808 23.8838 36.3415 24.374C35.7899 24.8766 35.8635 25.2688 35.9248 25.7714C35.9738 26.1881 37.1627 31.7406 44.5906 35.332C45.0318 35.5403 45.7673 35.9938 44.468 36.717Z"   /></symbol><symbol viewBox="0 0 48 48"     id="svg-Snapchat-Original"><path d="M44.5944 35.3594C37.1613 31.7601 35.9766 26.203 35.9239 25.7908C35.8601 25.2915 35.7877 24.8989 36.3384 24.391C36.8694 23.9003 39.2253 22.4417 39.879 21.9854C40.9594 21.2297 41.4352 20.4753 41.0845 19.5478C40.8392 18.9062 40.242 18.6646 39.6128 18.6646C39.4144 18.6652 39.2166 18.6874 39.0229 18.7308C37.8358 18.9884 36.683 19.5834 36.0158 19.7441C35.9357 19.7648 35.8533 19.7759 35.7706 19.7772C35.4149 19.7772 35.28 19.619 35.3144 19.1909C35.3977 17.893 35.5743 15.3597 35.3695 12.9933C35.0887 9.73752 34.0389 8.12434 32.7941 6.69763C32.192 6.00574 29.3958 3.03333 23.9997 3.03333C18.6036 3.03333 15.8112 6.00574 15.2127 6.68904C13.9642 8.11575 12.9157 9.72893 12.6373 12.9847C12.4325 15.3511 12.6164 17.8831 12.6925 19.1823C12.717 19.5895 12.5919 19.7687 12.2363 19.7687C12.1535 19.7672 12.0712 19.7561 11.991 19.7355C11.3251 19.5748 10.1723 18.9799 8.98512 18.7222C8.79147 18.6788 8.59368 18.6566 8.39523 18.656C7.76364 18.656 7.16884 18.9013 6.92356 19.5392C6.57282 20.4667 7.0462 21.2211 8.13033 21.9768C8.78399 22.4332 11.1399 23.8905 11.6709 24.3825C12.2203 24.8903 12.1492 25.2829 12.0854 25.7822C12.0327 26.2005 10.8468 31.7577 3.41488 35.3508C2.97951 35.5618 2.23878 36.0084 3.54488 36.7297C5.59539 37.8632 6.96036 37.7418 8.02118 38.4251C8.92134 39.0053 8.38909 40.2566 9.04398 40.7081C9.84849 41.2638 12.2264 40.6688 15.2985 41.6833C17.8739 42.5322 19.4388 44.9305 24.0059 44.9305C28.5729 44.9305 30.1832 42.5212 32.7132 41.6833C35.7791 40.6688 38.162 41.2638 38.9677 40.7081C39.6214 40.2566 39.0904 39.0053 39.9906 38.4251C41.0514 37.7418 42.4151 37.8632 44.4669 36.7297C45.7705 36.017 45.0298 35.5704 44.5944 35.3594Z"   /><path d="M47.8284 34.937C47.4948 34.0292 46.8596 33.5434 46.136 33.141C45.9999 33.0613 45.8748 32.9975 45.7681 32.9484C45.5522 32.8368 45.3315 32.7289 45.112 32.6148C42.8566 31.4187 41.0956 29.9098 39.8741 28.1212C39.5272 27.6177 39.2263 27.0839 38.9751 26.5264C38.8709 26.2283 38.8758 26.059 38.9506 25.9044C39.0248 25.7854 39.123 25.683 39.2388 25.6039C39.6263 25.3475 40.0261 25.0874 40.2972 24.912C40.7804 24.5992 41.163 24.3514 41.4095 24.176C42.3354 23.5282 42.983 22.84 43.3877 22.0709C43.67 21.5394 43.8347 20.9534 43.8705 20.3527C43.9062 19.7519 43.8122 19.1505 43.5949 18.5893C42.9817 16.9749 41.4573 15.9727 39.6104 15.9727C39.2208 15.9723 38.8323 16.0134 38.4515 16.0953C38.3497 16.1174 38.2479 16.1407 38.1485 16.1665C38.1657 15.0624 38.1412 13.897 38.0431 12.75C37.6948 8.71767 36.2832 6.60398 34.8116 4.91843C33.8691 3.86218 32.7591 2.96858 31.5261 2.27355C29.2928 0.99773 26.7603 0.350006 23.9998 0.350006C21.2392 0.350006 18.719 0.99773 16.4833 2.27355C15.2472 2.96879 14.1349 3.86419 13.1916 4.92333C11.72 6.60889 10.3084 8.72626 9.96012 12.7549C9.86201 13.9019 9.83748 15.0735 9.85342 16.1714C9.75408 16.1456 9.65352 16.1223 9.55173 16.1003C9.17087 16.0183 8.78237 15.9772 8.3928 15.9776C6.54464 15.9776 5.01779 16.9798 4.40705 18.5942C4.18875 19.1557 4.09383 19.7575 4.12875 20.3589C4.16366 20.9603 4.3276 21.5471 4.6094 22.0794C5.01534 22.8486 5.66287 23.5368 6.58879 24.1845C6.83406 24.3563 7.21792 24.6041 7.70112 24.9206C7.96234 25.0899 8.34374 25.3377 8.71779 25.5855C8.84866 25.6701 8.95989 25.7818 9.04401 25.913C9.1225 26.0737 9.12495 26.2467 9.00844 26.5657C8.76064 27.1114 8.46473 27.6341 8.12422 28.1273C6.92972 29.8754 5.22014 31.3574 3.03718 32.5436C1.8807 33.157 0.678844 33.5667 0.171121 34.9468C-0.21151 35.9883 0.0386716 37.1734 1.01119 38.1719C1.36812 38.5447 1.7821 38.8581 2.23758 39.1006C3.18532 39.6216 4.19309 40.0249 5.23854 40.3016C5.45428 40.3573 5.6591 40.4489 5.84437 40.5727C6.1988 40.8831 6.14852 41.3505 6.62067 42.035C6.85769 42.3888 7.15885 42.695 7.50858 42.9379C8.49949 43.6224 9.61305 43.6653 10.7928 43.7107C11.8586 43.7512 13.0665 43.7978 14.4462 44.253C15.0177 44.4419 15.6113 44.8074 16.2993 45.2344C17.9512 46.2501 20.2127 47.64 23.9973 47.64C27.7819 47.64 30.0593 46.2427 31.7235 45.2233C32.4066 44.8038 32.9965 44.4419 33.5521 44.2579C34.9317 43.8015 36.1397 43.7561 37.2055 43.7156C38.3852 43.6702 39.4988 43.6273 40.4897 42.9428C40.9039 42.6539 41.249 42.2768 41.5003 41.8387C41.84 41.2609 41.8314 40.8573 42.1502 40.5752C42.3241 40.4573 42.5164 40.3694 42.7193 40.3151C43.779 40.0375 44.8005 39.6305 45.7607 39.1031C46.2446 38.8434 46.6802 38.5022 47.0484 38.0947L47.0607 38.0799C47.9731 37.1035 48.2024 35.9528 47.8284 34.937ZM44.4644 36.7452C42.4127 37.8788 41.0489 37.7573 39.9881 38.4406C39.0867 39.0209 39.6202 40.2721 38.9653 40.7236C38.1608 41.2793 35.7829 40.6843 32.7108 41.6989C30.1771 42.5367 28.5607 44.9461 24.0034 44.9461C19.4462 44.9461 17.8678 42.5416 15.2924 41.6927C12.2265 40.6782 9.84361 41.2732 9.03788 40.7175C8.38421 40.266 8.91524 39.0147 8.01507 38.4345C6.95302 37.7512 5.58929 37.8726 3.53877 36.7452C2.23267 36.0239 2.97341 35.5774 3.40877 35.3664C10.8407 31.7671 12.0266 26.2099 12.0793 25.7977C12.1431 25.2984 12.2142 24.9059 11.6648 24.398C11.1338 23.9073 8.77788 22.4487 8.12422 21.9923C7.04255 21.2367 6.56671 20.4822 6.91746 19.5548C7.16274 18.9132 7.76121 18.6715 8.38912 18.6715C8.58757 18.6721 8.78536 18.6943 8.97901 18.7378C10.1661 18.9954 11.319 19.5904 11.9849 19.7511C12.0651 19.7717 12.1474 19.7828 12.2302 19.7842C12.5858 19.7842 12.7109 19.6051 12.6864 19.1978C12.6103 17.8987 12.4264 15.3667 12.6312 13.0003C12.912 9.74446 13.9606 8.13129 15.2066 6.70457C15.8051 6.01882 18.6172 3.0464 23.9949 3.0464C29.3725 3.0464 32.192 6.00655 32.7905 6.68985C34.0377 8.11656 35.0875 9.72974 35.3659 12.9855C35.5707 15.3519 35.3941 17.8852 35.3107 19.1831C35.2825 19.6112 35.4113 19.7695 35.7669 19.7695C35.8497 19.7681 35.932 19.757 36.0122 19.7363C36.6793 19.5756 37.8321 18.9807 39.0193 18.723C39.2129 18.6796 39.4107 18.6574 39.6092 18.6568C40.2408 18.6568 40.8356 18.9022 41.0808 19.5401C41.4316 20.4675 40.9582 21.2219 39.8753 21.9776C39.2216 22.434 36.8658 23.8913 36.3347 24.3833C35.7841 24.8912 35.8564 25.2837 35.9202 25.783C35.9729 26.2013 37.1576 31.7585 44.5907 35.3517C45.0298 35.5712 45.7705 36.0178 44.4644 36.7452Z"   /></symbol><symbol viewBox="0 0 48 48"     id="svg-Spotify-Negative"><path d="M24 0C10.7455 0 0 10.7444 0 24C0 37.2556 10.7455 48 24 48C37.2545 48 48 37.2556 48 24C48 10.7444 37.2545 0 24 0ZM35.7091 34.5975C35.3236 35.28 34.6146 35.664 33.8837 35.664C33.5418 35.664 33.1891 35.5785 32.8655 35.3985C29.8691 33.7185 26.6037 32.6895 23.1527 32.34C19.6946 31.9935 16.28 32.3444 13 33.3916C11.9055 33.7411 10.7273 33.1364 10.3782 32.04C10.0255 30.9418 10.6327 29.7676 11.7309 29.4164C15.5564 28.1942 19.5454 27.7785 23.5745 28.188C27.5963 28.5975 31.4073 29.7975 34.9055 31.7582C35.9127 32.3189 36.2727 33.5909 35.7091 34.5975ZM38.5818 27.3076C38.2109 28.0215 37.4836 28.4309 36.7309 28.4309C36.4036 28.4309 36.0764 28.356 35.7673 28.1942C32.0836 26.2756 28.1054 25.0876 23.9345 24.6644C19.7309 24.2342 15.5673 24.6091 11.5527 25.7669C10.4436 26.0818 9.28729 25.4476 8.97093 24.3389C8.65093 23.232 9.2909 22.0756 10.3964 21.756C14.9273 20.4495 19.6254 20.0309 24.3564 20.5109C29.0545 20.9895 33.5418 22.3276 37.6982 24.4935C38.7164 25.0262 39.1164 26.2858 38.5818 27.3076ZM39.6218 21.2429C39.3091 21.2429 38.9927 21.1724 38.6909 21.024C34.32 18.8444 29.6182 17.4869 24.7127 16.9891C19.8 16.4865 14.9127 16.8749 10.1818 18.1382C9.06909 18.4335 7.92727 17.7735 7.62908 16.6589C7.3309 15.5458 7.99275 14.4015 9.10911 14.1044C14.3273 12.7109 19.7236 12.2865 25.1382 12.8371C30.5455 13.3844 35.7309 14.8829 40.5527 17.2876C41.5855 17.8018 42.0036 19.056 41.4909 20.0865C41.1273 20.82 40.3891 21.2429 39.6218 21.2429Z"   /></symbol><symbol viewBox="0 0 48 48"     id="svg-Spotify-Original"><path d="M24 0C10.7455 0 0 10.7444 0 24C0 37.2556 10.7455 48 24 48C37.2545 48 48 37.2556 48 24C48 10.7444 37.2545 0 24 0ZM35.7091 34.5975C35.3236 35.28 34.6146 35.664 33.8837 35.664C33.5418 35.664 33.1891 35.5785 32.8655 35.3985C29.8691 33.7185 26.6037 32.6895 23.1527 32.34C19.6946 31.9935 16.28 32.3444 13 33.3916C11.9055 33.7411 10.7273 33.1364 10.3782 32.04C10.0255 30.9418 10.6327 29.7676 11.7309 29.4164C15.5564 28.1942 19.5454 27.7785 23.5745 28.188C27.5963 28.5975 31.4073 29.7975 34.9055 31.7582C35.9127 32.3189 36.2727 33.5909 35.7091 34.5975ZM38.5818 27.3076C38.2109 28.0215 37.4836 28.4309 36.7309 28.4309C36.4036 28.4309 36.0764 28.356 35.7673 28.1942C32.0836 26.2756 28.1054 25.0876 23.9345 24.6644C19.7309 24.2342 15.5673 24.6091 11.5527 25.7669C10.4436 26.0818 9.28729 25.4476 8.97093 24.3389C8.65093 23.232 9.2909 22.0756 10.3964 21.756C14.9273 20.4495 19.6254 20.0309 24.3564 20.5109C29.0545 20.9895 33.5418 22.3276 37.6982 24.4935C38.7164 25.0262 39.1164 26.2858 38.5818 27.3076ZM39.6218 21.2429C39.3091 21.2429 38.9927 21.1724 38.6909 21.024C34.32 18.8444 29.6182 17.4869 24.7127 16.9891C19.8 16.4865 14.9127 16.8749 10.1818 18.1382C9.06909 18.4335 7.92727 17.7735 7.62908 16.6589C7.3309 15.5458 7.99275 14.4015 9.10911 14.1044C14.3273 12.7109 19.7236 12.2865 25.1382 12.8371C30.5455 13.3844 35.7309 14.8829 40.5527 17.2876C41.5855 17.8018 42.0036 19.056 41.4909 20.0865C41.1273 20.82 40.3891 21.2429 39.6218 21.2429Z" /></symbol><symbol viewBox="0 0 48 48"     id="svg-Telegram-Negative"><path fill-rule="evenodd" clip-rule="evenodd" d="M48 24C48 37.2548 37.2548 48 24 48C10.7452 48 0 37.2548 0 24C0 10.7452 10.7452 0 24 0C37.2548 0 48 10.7452 48 24ZM24.8601 17.7179C22.5257 18.6888 17.8603 20.6984 10.8638 23.7466C9.72766 24.1984 9.13251 24.6404 9.07834 25.0726C8.98677 25.803 9.90143 26.0906 11.147 26.4822C11.3164 26.5355 11.4919 26.5907 11.6719 26.6492C12.8973 27.0475 14.5457 27.5135 15.4026 27.5321C16.1799 27.5489 17.0475 27.2284 18.0053 26.5707C24.5423 22.158 27.9168 19.9276 28.1286 19.8795C28.2781 19.8456 28.4852 19.803 28.6255 19.9277C28.7659 20.0524 28.7521 20.2886 28.7372 20.352C28.6466 20.7383 25.0562 24.0762 23.1982 25.8036C22.619 26.3421 22.2081 26.724 22.1242 26.8113C21.936 27.0067 21.7443 27.1915 21.56 27.3692C20.4215 28.4667 19.5678 29.2896 21.6072 30.6336C22.5873 31.2794 23.3715 31.8135 24.1539 32.3463C25.0083 32.9281 25.8606 33.5085 26.9632 34.2313C27.2441 34.4155 27.5124 34.6067 27.7738 34.793C28.7681 35.5019 29.6615 36.1388 30.7652 36.0373C31.4065 35.9782 32.0689 35.3752 32.4053 33.5767C33.2004 29.3263 34.7633 20.1169 35.1244 16.3219C35.1561 15.9895 35.1163 15.5639 35.0843 15.3771C35.0523 15.1904 34.9855 14.9242 34.7427 14.7272C34.4552 14.4939 34.0113 14.4447 33.8127 14.4482C32.91 14.4641 31.5251 14.9456 24.8601 17.7179Z"   /></symbol><symbol viewBox="0 0 48 48"     id="svg-Telegram-Original"><path d="M24 48C37.2548 48 48 37.2548 48 24C48 10.7452 37.2548 0 24 0C10.7452 0 0 10.7452 0 24C0 37.2548 10.7452 48 24 48Z" fill="url(#bjpaint0_linear_318_61)"/><path fill-rule="evenodd" clip-rule="evenodd" d="M10.8638 23.7466C17.8603 20.6984 22.5257 18.6888 24.8601 17.7179C31.5251 14.9456 32.91 14.4641 33.8127 14.4482C34.0113 14.4447 34.4552 14.4939 34.7427 14.7272C34.9855 14.9242 35.0523 15.1904 35.0843 15.3771C35.1163 15.5639 35.1561 15.9895 35.1244 16.3219C34.7633 20.1169 33.2004 29.3263 32.4053 33.5767C32.0689 35.3752 31.4065 35.9783 30.7652 36.0373C29.3714 36.1655 28.3131 35.1162 26.9632 34.2313C24.8509 32.8467 23.6576 31.9847 21.6072 30.6336C19.2377 29.0721 20.7738 28.2139 22.1242 26.8113C22.4776 26.4442 28.6183 20.8587 28.7372 20.352C28.7521 20.2886 28.7659 20.0524 28.6255 19.9277C28.4852 19.803 28.2781 19.8456 28.1286 19.8795C27.9168 19.9276 24.5423 22.158 18.0053 26.5707C17.0475 27.2284 16.1799 27.5489 15.4026 27.5321C14.5457 27.5135 12.8973 27.0475 11.6719 26.6492C10.1689 26.1606 8.97432 25.9023 9.07834 25.0726C9.13252 24.6404 9.72767 24.1984 10.8638 23.7466Z"   /><defs><linearGradient id="bjpaint0_linear_318_61" x1="24" y1="0" x2="24" y2="47.644" gradientUnits="userSpaceOnUse"><stop stop-color="#2AABEE"/><stop offset="1" stop-color="#229ED9"/></linearGradient></defs></symbol><symbol viewBox="0 0 48 48"     id="svg-TikTok-Negative"><path d="M34.1451 0H26.0556V32.6956C26.0556 36.5913 22.9444 39.7913 19.0725 39.7913C15.2007 39.7913 12.0894 36.5913 12.0894 32.6956C12.0894 28.8696 15.1315 25.7391 18.8651 25.6V17.3913C10.6374 17.5304 4 24.2783 4 32.6956C4 41.1827 10.7757 48 19.1417 48C27.5075 48 34.2833 41.1131 34.2833 32.6956V15.9304C37.3255 18.1565 41.059 19.4783 45 19.5479V11.3391C38.9157 11.1304 34.1451 6.12173 34.1451 0Z"   /></symbol><symbol viewBox="0 0 48 48"     id="svg-TikTok-Original"><path d="M34.353 17.3269C37.4397 19.5413 41.2211 20.8442 45.3051 20.8442V12.9572C44.5322 12.9574 43.7613 12.8765 43.0051 12.7157V18.9239C38.9214 18.9239 35.1405 17.621 32.053 15.4068V31.5017C32.053 39.5533 25.5492 46.0798 17.5268 46.0798C14.5334 46.0798 11.7512 45.1716 9.44006 43.6141C12.0779 46.3208 15.7565 48 19.8263 48C27.8492 48 34.3534 41.4734 34.3534 33.4215V17.3269H34.353ZM37.1904 9.36999C35.6129 7.64045 34.5772 5.40535 34.353 2.93435V1.91992H32.1735C32.7221 5.06056 34.5934 7.74374 37.1904 9.36999ZM14.5142 37.4356C13.6329 36.2759 13.1566 34.8572 13.1587 33.3985C13.1587 29.716 16.1336 26.7302 19.8037 26.7302C20.4877 26.7301 21.1675 26.8352 21.8194 27.0427V18.9795C21.0576 18.8748 20.2888 18.8303 19.5203 18.8466V25.1226C18.868 24.915 18.1878 24.8096 17.5037 24.8103C13.8335 24.8103 10.8589 27.7957 10.8589 31.4787C10.8589 34.0828 12.3458 36.3373 14.5142 37.4356Z" /><path d="M32.0529 15.4066C35.1404 17.6208 38.9213 18.9237 43.005 18.9237V12.7156C40.7255 12.2283 38.7075 11.0328 37.1903 9.36999C34.5931 7.74358 32.722 5.0604 32.1733 1.91992H26.4482V33.4212C26.4352 37.0936 23.4655 40.0672 19.8032 40.0672C17.6451 40.0672 15.7279 39.0348 14.5136 37.4356C12.3454 36.3373 10.8585 34.0826 10.8585 31.4788C10.8585 27.7962 13.8331 24.8104 17.5032 24.8104C18.2064 24.8104 18.8842 24.9203 19.5199 25.1228V18.8468C11.6384 19.0102 5.2998 25.473 5.2998 33.4214C5.2998 37.3892 6.87827 40.9861 9.44013 43.6143C11.7513 45.1716 14.5335 46.08 17.5268 46.08C25.5494 46.08 32.0531 39.5531 32.0531 31.5017V15.4066H32.0529Z"   /><path d="M43.0051 12.7156V11.037C40.9495 11.0401 38.9343 10.4624 37.1903 9.36987C38.7342 11.0661 40.7671 12.2357 43.0051 12.7156ZM32.1734 1.91997C32.1211 1.61982 32.0809 1.3177 32.053 1.01443V0H24.148V31.5016C24.1354 35.1735 21.1658 38.1471 17.5033 38.1471C16.428 38.1471 15.4128 37.891 14.5137 37.4358C15.7279 39.0349 17.6452 40.0671 19.8033 40.0671C23.4652 40.0671 26.4354 37.0938 26.4482 33.4214V1.91997H32.1734ZM19.5203 18.8468V17.0598C18.8598 16.9692 18.1938 16.9237 17.5271 16.924C9.50383 16.9239 3 23.4508 3 31.5016C3 36.5491 5.55612 40.9974 9.44034 43.614C6.87848 40.986 5.30002 37.3889 5.30002 33.4213C5.30002 25.473 11.6385 19.0102 19.5203 18.8468Z"/></symbol><symbol viewBox="0 0 48 48"     id="svg-Tumblr-Negative"><g clip-path="url(#bmclip0_318_74)"><path d="M29.2 48C22 48 16.6 44.3 16.6 35.4V21.2H10V13.5C17.2 11.6 20.2 5.4 20.6 0H28.1V12.2H36.8V21.2H28.1V33.6C28.1 37.3 30 38.6 33 38.6H37.2V48H29.2Z"   /></g><defs><clipPath id="bmclip0_318_74"><path    transform="translate(10)" d="M0 0H27.2V48H0z"/></clipPath></defs></symbol><symbol viewBox="0 0 48 48"     id="svg-Tumblr-Original"><g clip-path="url(#bnclip0_316_269)"><path d="M29.2 48C22 48 16.6 44.3 16.6 35.4V21.2H10V13.5C17.2 11.6 20.2 5.4 20.6 0H28.1V12.2H36.8V21.2H28.1V33.6C28.1 37.3 30 38.6 33 38.6H37.2V48H29.2Z"/></g><defs><clipPath id="bnclip0_316_269"><path    transform="translate(10)" d="M0 0H27.2V48H0z"/></clipPath></defs></symbol><symbol viewBox="0 0 48 48"     id="svg-Twitch-Negative"><path d="M12.0015 0L3.43005 8.57143V39.4286H13.7158V48L22.2872 39.4286H29.1443L44.5729 24V0H12.0015ZM41.1443 22.2857L34.2872 29.1429H27.4301L21.4301 35.1429V29.1429H13.7158V3.42857H41.1443V22.2857Z"   /><path d="M36.0014 9.42859H32.5729V19.7143H36.0014V9.42859zM26.5729 9.42859H23.1443V19.7143H26.5729V9.42859z"   /></symbol><symbol viewBox="0 0 48 48"     id="svg-Twitch-Original"><path d="M41.1444 22.2857L34.2873 29.1428H27.4301L21.4301 35.1428V29.1428H13.7158V3.42853H41.1444V22.2857Z"   /><path d="M12.0015 0L3.43005 8.57143V39.4286H13.7158V48L22.2872 39.4286H29.1443L44.5729 24V0H12.0015ZM41.1443 22.2857L34.2872 29.1429H27.4301L21.4301 35.1429V29.1429H13.7158V3.42857H41.1443V22.2857Z"/><path d="M36.0014 9.42859H32.5729V19.7143H36.0014V9.42859zM26.5729 9.42859H23.1443V19.7143H26.5729V9.42859z" /></symbol><symbol viewBox="0 0 48 48"     id="svg-Twitter-Negative"><g clip-path="url(#bqclip0_17_80)"><path d="M15.1003 43.5C33.2091 43.5 43.1166 28.4935 43.1166 15.4838C43.1166 15.0619 43.1072 14.6307 43.0884 14.2088C45.0157 12.815 46.679 11.0886 48 9.11066C46.205 9.90926 44.2993 10.4308 42.3478 10.6575C44.4026 9.42588 45.9411 7.49101 46.6781 5.21159C44.7451 6.35718 42.6312 7.16528 40.4269 7.60128C38.9417 6.02318 36.978 4.97829 34.8394 4.62816C32.7008 4.27803 30.5064 4.64216 28.5955 5.66425C26.6846 6.68635 25.1636 8.30947 24.2677 10.2827C23.3718 12.2559 23.1509 14.4693 23.6391 16.5807C19.725 16.3842 15.8959 15.3675 12.4 13.5963C8.90405 11.825 5.81939 9.33893 3.34594 6.29909C2.0888 8.46655 1.70411 11.0314 2.27006 13.4722C2.83601 15.9131 4.31013 18.047 6.39281 19.44C4.82926 19.3904 3.29995 18.9694 1.93125 18.2119V18.3338C1.92985 20.6084 2.7162 22.8132 4.15662 24.5736C5.59704 26.334 7.60265 27.5412 9.8325 27.99C8.38411 28.3863 6.86396 28.4441 5.38969 28.1588C6.01891 30.1149 7.24315 31.8258 8.89154 33.0527C10.5399 34.2796 12.5302 34.9613 14.5847 35.0025C11.0968 37.7423 6.78835 39.2283 2.35313 39.2213C1.56657 39.2201 0.780798 39.1719 0 39.0769C4.50571 41.9676 9.74706 43.5028 15.1003 43.5Z"   /></g><defs><clipPath id="bqclip0_17_80"><path    d="M0 0H48V48H0z"/></clipPath></defs></symbol><symbol viewBox="0 0 48 48"     id="svg-Twitter-Original"><path d="M15.095 43.5014C33.2083 43.5014 43.1155 28.4946 43.1155 15.4809C43.1155 15.0546 43.1155 14.6303 43.0867 14.2079C45.0141 12.8138 46.6778 11.0877 48 9.11033C46.2028 9.90713 44.2961 10.4294 42.3437 10.6598C44.3996 9.42915 45.9383 7.49333 46.6733 5.21273C44.7402 6.35994 42.6253 7.16838 40.4198 7.60313C38.935 6.02428 36.9712 4.97881 34.8324 4.6285C32.6935 4.27818 30.4988 4.64256 28.5879 5.66523C26.677 6.68791 25.1564 8.31187 24.2615 10.2858C23.3665 12.2598 23.1471 14.4737 23.6371 16.5849C19.7218 16.3885 15.8915 15.371 12.3949 13.5983C8.89831 11.8257 5.81353 9.33765 3.3408 6.29561C2.08146 8.4636 1.69574 11.0301 2.2622 13.4725C2.82865 15.9148 4.30468 18.0495 6.38976 19.4418C4.82246 19.3959 3.2893 18.9731 1.92 18.2092V18.334C1.92062 20.6077 2.7077 22.8112 4.14774 24.5707C5.58778 26.3303 7.59212 27.5375 9.8208 27.9878C8.37096 28.3832 6.84975 28.441 5.37408 28.1567C6.00363 30.1134 7.22886 31.8244 8.87848 33.0506C10.5281 34.2768 12.5197 34.9569 14.5747 34.9958C12.5329 36.6007 10.1946 37.7873 7.69375 38.4878C5.19287 39.1882 2.57843 39.3886 0 39.0777C4.50367 41.9677 9.74385 43.5007 15.095 43.4937" /></symbol><symbol viewBox="0 0 48 48"     id="svg-VK-Negative"><path fill-rule="evenodd" clip-rule="evenodd" d="M3.37413 3.37413C0 6.74826 0 12.1788 0 23.04V24.96C0 35.8212 0 41.2517 3.37413 44.6259C6.74826 48 12.1788 48 23.04 48H24.96C35.8212 48 41.2517 48 44.6259 44.6259C48 41.2517 48 35.8212 48 24.96V23.04C48 12.1788 48 6.74826 44.6259 3.37413C41.2517 0 35.8212 0 24.96 0H23.04C12.1788 0 6.74826 0 3.37413 3.37413ZM8.10012 14.6001C8.36012 27.0801 14.6001 34.5801 25.5401 34.5801H26.1602V27.4401C30.1802 27.8401 33.22 30.7801 34.44 34.5801H40.1201C38.5601 28.9001 34.4599 25.7601 31.8999 24.5601C34.4599 23.0801 38.0599 19.4801 38.9199 14.6001H33.7598C32.6398 18.5601 29.3202 22.1601 26.1602 22.5001V14.6001H21V28.4401C17.8 27.6401 13.7601 23.7601 13.5801 14.6001H8.10012Z"   /></symbol><symbol viewBox="0 0 48 48"     id="svg-VK-Original"><path d="M0 23.04C0 12.1788 0 6.74826 3.37413 3.37413C6.74826 0 12.1788 0 23.04 0H24.96C35.8212 0 41.2517 0 44.6259 3.37413C48 6.74826 48 12.1788 48 23.04V24.96C48 35.8212 48 41.2517 44.6259 44.6259C41.2517 48 35.8212 48 24.96 48H23.04C12.1788 48 6.74826 48 3.37413 44.6259C0 41.2517 0 35.8212 0 24.96V23.04Z"/><path d="M25.54 34.5801C14.6 34.5801 8.3601 27.0801 8.1001 14.6001H13.5801C13.7601 23.7601 17.8 27.6401 21 28.4401V14.6001H26.1602V22.5001C29.3202 22.1601 32.6398 18.5601 33.7598 14.6001H38.9199C38.0599 19.4801 34.4599 23.0801 31.8999 24.5601C34.4599 25.7601 38.5601 28.9001 40.1201 34.5801H34.4399C33.2199 30.7801 30.1802 27.8401 26.1602 27.4401V34.5801H25.54Z"   /></symbol><symbol viewBox="0 0 48 48"     id="svg-YouTube-Negative"><path d="M47.5219 14.4001C47.5219 14.4001 47.0531 11.0907 45.6094 9.6376C43.7812 7.7251 41.7375 7.71572 40.8 7.60322C34.0875 7.11572 24.0094 7.11572 24.0094 7.11572H23.9906C23.9906 7.11572 13.9125 7.11572 7.2 7.60322C6.2625 7.71572 4.21875 7.7251 2.39062 9.6376C0.946875 11.0907 0.4875 14.4001 0.4875 14.4001C0.4875 14.4001 0 18.2907 0 22.172V25.8095C0 29.6907 0.478125 33.5813 0.478125 33.5813C0.478125 33.5813 0.946875 36.8907 2.38125 38.3438C4.20937 40.2563 6.60938 40.1907 7.67813 40.397C11.5219 40.7626 24 40.8751 24 40.8751C24 40.8751 34.0875 40.8563 40.8 40.3782C41.7375 40.2657 43.7812 40.2563 45.6094 38.3438C47.0531 36.8907 47.5219 33.5813 47.5219 33.5813C47.5219 33.5813 48 29.7001 48 25.8095V22.172C48 18.2907 47.5219 14.4001 47.5219 14.4001ZM19.0406 30.2251V16.7345L32.0062 23.5032L19.0406 30.2251Z"   /></symbol><symbol viewBox="0 0 48 48"     id="svg-YouTube-Original"><g clip-path="url(#bvclip0_17_47)"><path d="M47.044 12.3709C46.7726 11.3497 46.2378 10.4178 45.493 9.66822C44.7483 8.91869 43.8197 8.37791 42.8003 8.1C39.0476 7.09091 24.0476 7.09091 24.0476 7.09091C24.0476 7.09091 9.04761 7.09091 5.29488 8.1C4.27547 8.37791 3.34693 8.91869 2.60218 9.66822C1.85744 10.4178 1.32262 11.3497 1.05124 12.3709C0.0476075 16.14 0.0476074 24 0.0476074 24C0.0476074 24 0.0476075 31.86 1.05124 35.6291C1.32262 36.6503 1.85744 37.5822 2.60218 38.3318C3.34693 39.0813 4.27547 39.6221 5.29488 39.9C9.04761 40.9091 24.0476 40.9091 24.0476 40.9091C24.0476 40.9091 39.0476 40.9091 42.8003 39.9C43.8197 39.6221 44.7483 39.0813 45.493 38.3318C46.2378 37.5822 46.7726 36.6503 47.044 35.6291C48.0476 31.86 48.0476 24 48.0476 24C48.0476 24 48.0476 16.14 47.044 12.3709Z" /><path d="M19.1385 31.1373V16.8628L31.684 24.0001L19.1385 31.1373Z"/></g><defs><clipPath id="bvclip0_17_47"><path    d="M0 0H48V48H0z"/></clipPath></defs></symbol><symbol viewBox="0 0 25 25"     id="svg-headericon1"><path d="M12.6051 12.0445C9.46073 12.0445 6.91174 9.49555 6.91174 6.35122 6.91174 3.20688 9.46073.657898 12.6051.657898 15.7494.657898 18.2984 3.20688 18.2984 6.35122 18.2984 7.86118 17.6986 9.3093 16.6308 10.377 15.5631 11.4447 14.115 12.0445 12.6051 12.0445zM12.6051 1.92308C10.1595 1.92308 8.17693 3.90562 8.17693 6.35122 8.17693 8.79681 10.1595 10.7794 12.6051 10.7794 15.0507 10.7794 17.0332 8.79681 17.0332 6.35122 17.0416 5.17133 16.5788 4.03687 15.7475 3.19958 14.9161 2.36229 13.785 1.89145 12.6051 1.89145V1.92308zM20.367 24.3737H4.84319C4.33028 24.3782 3.83907 24.1671 3.48945 23.7918 3.19611 23.4755 3.04721 23.0517 3.07826 22.6215 3.59066 17.0294 7.68352 12.81 12.6051 12.81 17.5266 12.81 21.6195 16.9977 22.1319 22.6215 22.172 23.0623 22.0225 23.4995 21.7207 23.8234 21.3656 24.187 20.8751 24.3865 20.367 24.3737zM12.6051 14.0435C8.34142 14.0435 4.78626 17.7695 4.33712 22.7037 4.33162 22.7908 4.36389 22.8761 4.42568 22.9378 4.53496 23.0504 4.6863 23.1123 4.84319 23.1086H20.367C20.5239 23.1123 20.6752 23.0504 20.7845 22.9378 20.8463 22.8761 20.8785 22.7908 20.873 22.7037 20.4239 17.7695 16.8687 14.0435 12.6051 14.0435z"/></symbol><symbol viewBox="0 0 25 25"     id="svg-headericon2"><path d="M12.5394 24.1777C5.94106 24.1777 0.592041 18.8367 0.592041 12.2482C0.592041 5.65981 5.94106 0.318817 12.5394 0.318817C19.1378 0.318817 24.4868 5.65981 24.4868 12.2482C24.4759 18.8322 19.1333 24.1668 12.5394 24.1777ZM12.5394 1.67861C6.69318 1.67861 1.95388 6.4108 1.95388 12.2482C1.95388 18.0857 6.69318 22.8179 12.5394 22.8179C18.3856 22.8179 23.1249 18.0857 23.1249 12.2482C23.1177 6.4138 18.3826 1.68585 12.5394 1.67861Z" /><path fill-rule="evenodd" clip-rule="evenodd" d="M12.6775 16.8926C13.0986 16.8899 13.4796 17.1411 13.6426 17.5287 13.8055 17.9163 13.7182 18.3638 13.4215 18.6621 13.1247 18.9603 12.6771 19.0503 12.2879 18.89 11.8986 18.7298 11.6447 18.3509 11.6447 17.9305 11.6482 17.3613 12.1075 16.8997 12.6775 16.8926zM13.3421 15.5065V14.8102C13.336 14.5265 13.3806 14.244 13.4737 13.9759 13.559 13.7473 13.674 13.5308 13.8158 13.3321 13.9641 13.1203 14.1315 12.9224 14.3158 12.7409 14.5 12.5504 14.6908 12.3731 14.8816 12.1891 15.0724 12.0052 15.2631 11.8016 15.4474 11.5979 15.6347 11.3971 15.8001 11.1769 15.9408 10.941 16.2832 10.3941 16.4592 9.75967 16.4474 9.1148 16.4571 8.59354 16.3632 8.07554 16.171 7.59078 15.9965 7.1667 15.7316 6.78563 15.3947 6.47404 15.0474 6.1612 14.64 5.92207 14.1974 5.77114 13.7034 5.60605 13.1854 5.52392 12.6645 5.52809 12.0871 5.52128 11.5143 5.63076 10.9802 5.84997 10.4901 6.05561 10.0519 6.3675 9.69736 6.76307 9.34302 7.16317 9.07237 7.62997 8.9013 8.13601 8.70831 8.68185 8.61906 9.25886 8.63814 9.8374 8.63814 10.2582 8.97982 10.5994 9.4013 10.5994 9.82278 10.5994 10.1645 10.2582 10.1645 9.8374 10.1598 9.44507 10.2085 9.05392 10.3092 8.67467 10.3942 8.3357 10.5488 8.01805 10.7631 7.74187 10.9731 7.46858 11.2403 7.24439 11.546 7.08496 11.8943 6.92485 12.2746 6.84622 12.6579 6.85504 13.2224 6.82532 13.7751 7.02427 14.1908 7.40684 14.597 7.82031 14.8319 8.37162 14.8487 8.95057 14.877 9.33412 14.8232 9.71931 14.6908 10.0805 14.5592 10.3893 14.3793 10.6753 14.1579 10.9279 13.9341 11.1875 13.6946 11.4332 13.4408 11.6636 13.1804 11.9029 12.9344 12.1574 12.7039 12.4256 12.4675 12.7124 12.2685 13.0281 12.1118 13.365 11.9416 13.7711 11.8501 14.2058 11.8421 14.646V15.4999C11.8421 15.9208 12.1838 16.2619 12.6052 16.2619 13.0267 16.2619 13.3684 15.9208 13.3684 15.4999"/></symbol><symbol viewBox="0 0 34 31"     id="svg-headericon3"><g clip-path="url(#byclip0_1_39)" fill-rule="evenodd" clip-rule="evenodd"><path d="M8.42963 6.2142L11.5266 21.7802L28.3366 20.7912L31.7276 6.0342H20.0506L8.42963 6.2142ZM11.0356 23.0172C10.7506 23.0172 10.5006 22.8152 10.4446 22.5312L7.13863 5.9112L4.56963 3.2072H0.603634C0.270634 3.2072 -0.000366211 2.9372 -0.000366211 2.6042C-0.000366211 2.2702 0.270634 2.0002 0.603634 2.0002H4.82863C4.99463 2.0002 5.15263 2.0682 5.26663 2.1882L7.95163 5.0142L20.0416 4.8272H32.4856C32.6696 4.8272 32.8436 4.9112 32.9576 5.0552C33.0726 5.1992 33.1156 5.3872 33.0736 5.5662L29.4116 21.5022C29.3516 21.7632 29.1266 21.9542 28.8596 21.9692L11.0726 23.0162C11.0606 23.0172 11.0486 23.0172 11.0356 23.0172Z"/><path d="M29.4276 25.4718H11.1166C10.7836 25.4718 10.5126 25.2008 10.5126 24.8678V22.4128C10.5126 22.0798 10.7836 21.8098 11.1166 21.8098 11.4496 21.8098 11.7206 22.0798 11.7206 22.4128V24.2638H29.4276C29.7606 24.2638 30.0316 24.5348 30.0316 24.8678 30.0316 25.2008 29.7606 25.4718 29.4276 25.4718zM14.417 28.2785C14.417 29.5785 13.363 30.6325 12.063 30.6325 10.763 30.6325 9.70898 29.5785 9.70898 28.2785 9.70898 26.9785 10.763 25.9245 12.063 25.9245 13.363 25.9245 14.417 26.9785 14.417 28.2785zM30.2723 28.2785C30.2723 29.5785 29.2183 30.6325 27.9183 30.6325 26.6183 30.6325 25.5643 29.5785 25.5643 28.2785 25.5643 26.9785 26.6183 25.9245 27.9183 25.9245 29.2183 25.9245 30.2723 26.9785 30.2723 28.2785z"/></g><defs><clipPath id="byclip0_1_39"><path    d="M0 0H34V31H0z"/></clipPath></defs></symbol></svg>